<svg xmlns="http://www.w3.org/2000/svg" id="prefix__Apartment" width="54.448" height="50.936" viewBox="0 0 54.448 50.936">
    <defs>
        <style>
            .prefix__cls-2{fill:#ed1c24}.prefix__cls-3{fill:#feca25}.prefix__cls-4{fill:#e0e0e2}.prefix__cls-5{fill:#91cc04}
        </style>
    </defs>
    <path id="prefix__Path_10049" d="M9 8h21.077v42.154H9z" data-name="Path 10049" transform="translate(-1.974 -3.609)" style="fill:#94a1c1;opacity:.42"/>
    <path id="prefix__Path_10050" d="M5 4h28.1v3.513H5z" class="prefix__cls-2" data-name="Path 10050" transform="translate(-1.487 -3.122)"/>
    <path id="prefix__Path_10051" d="M5 56h28.1v3.513H5z" class="prefix__cls-2" data-name="Path 10051" transform="translate(-1.487 -9.455)"/>
    <path id="prefix__Path_10052" d="M13 33h5.269v5.269H13z" class="prefix__cls-3" data-name="Path 10052" transform="translate(-2.462 -6.654)"/>
    <path id="prefix__Path_10053" d="M23 33h5.269v5.269H23z" class="prefix__cls-3" data-name="Path 10053" transform="translate(-3.68 -6.654)"/>
    <path id="prefix__Path_10054" d="M13 23h5.269v5.269H13z" class="prefix__cls-3" data-name="Path 10054" transform="translate(-2.462 -5.436)"/>
    <path id="prefix__Path_10055" d="M23 23h5.269v5.269H23z" class="prefix__cls-3" data-name="Path 10055" transform="translate(-3.68 -5.436)"/>
    <path id="prefix__Path_10056" d="M13 13h5.269v5.269H13z" class="prefix__cls-3" data-name="Path 10056" transform="translate(-2.462 -4.218)"/>
    <path id="prefix__Path_10057" d="M23 13h5.269v5.269H23z" class="prefix__cls-3" data-name="Path 10057" transform="translate(-3.68 -4.218)"/>
    <path id="prefix__Path_10058" d="M17 44h7.026v10.538H17z" class="prefix__cls-4" data-name="Path 10058" transform="translate(-2.949 -7.994)"/>
    <path id="prefix__Path_10059" d="M39.18 43.438a3.478 3.478 0 0 1 1.12-4.225 2.635 2.635 0 1 1 4.185 0 3.478 3.478 0 0 1 1.115 4.221 4.391 4.391 0 1 1-6.421 0z" class="prefix__cls-5" data-name="Path 10059" transform="translate(-5.507 -6.895)"/>
    <path id="prefix__Path_10060" d="M51.18 47.438a3.478 3.478 0 0 1 1.12-4.225 2.635 2.635 0 1 1 4.185 0 3.478 3.478 0 0 1 1.115 4.221 4.391 4.391 0 1 1-6.421 0z" class="prefix__cls-5" data-name="Path 10060" transform="translate(-6.968 -7.382)"/>
    <path id="prefix__Path_10061" d="M50.538 22.83a2.2 2.2 0 0 0-2.2-2.2 2.234 2.234 0 0 0-.444.045v-.045a2.628 2.628 0 0 0-5.113-.862c-.053 0-.1-.016-.156-.016a2.635 2.635 0 1 0 0 5.269h6.147v-.044a2.2 2.2 0 0 0 1.756-2.152z" class="prefix__cls-4" data-name="Path 10061" transform="translate(-5.75 -4.827)"/>
    <path id="prefix__Path_10062" d="M61.756 59h-.878a.878.878 0 0 0 0 1.756h.878a.878.878 0 1 0 0-1.756z" data-name="Path 10062" transform="translate(-8.186 -9.821)"/>
    <path id="prefix__Path_10063" d="M18.147 39.026a.878.878 0 0 0 .878-.878v-5.27a.878.878 0 0 0-.878-.878h-5.269a.878.878 0 0 0-.878.878v5.269a.878.878 0 0 0 .878.878zm-4.391-5.269h3.513v3.513h-3.513z" data-name="Path 10063" transform="translate(-2.34 -6.532)"/>
    <path id="prefix__Path_10064" d="M22.878 39.026h5.269a.878.878 0 0 0 .878-.878v-5.27a.878.878 0 0 0-.878-.878h-5.269a.878.878 0 0 0-.878.878v5.269a.878.878 0 0 0 .878.879zm.878-5.269h3.513v3.513h-3.513z" data-name="Path 10064" transform="translate(-3.558 -6.532)"/>
    <path id="prefix__Path_10065" d="M12.878 29.026h5.269a.878.878 0 0 0 .878-.878v-5.27a.878.878 0 0 0-.878-.878h-5.269a.878.878 0 0 0-.878.878v5.269a.878.878 0 0 0 .878.879zm.878-5.269h3.513v3.513h-3.513z" data-name="Path 10065" transform="translate(-2.34 -5.314)"/>
    <path id="prefix__Path_10066" d="M22.878 29.026h5.269a.878.878 0 0 0 .878-.878v-5.27a.878.878 0 0 0-.878-.878h-5.269a.878.878 0 0 0-.878.878v5.269a.878.878 0 0 0 .878.879zm.878-5.269h3.513v3.513h-3.513z" data-name="Path 10066" transform="translate(-3.558 -5.314)"/>
    <path id="prefix__Path_10067" d="M12.878 19.026h5.269a.878.878 0 0 0 .878-.878v-5.27a.878.878 0 0 0-.878-.878h-5.269a.878.878 0 0 0-.878.878v5.269a.878.878 0 0 0 .878.879zm.878-5.269h3.513v3.513h-3.513z" data-name="Path 10067" transform="translate(-2.34 -4.096)"/>
    <path id="prefix__Path_10068" d="M22.878 19.026h5.269a.878.878 0 0 0 .878-.878v-5.27a.878.878 0 0 0-.878-.878h-5.269a.878.878 0 0 0-.878.878v5.269a.878.878 0 0 0 .878.879zm.878-5.269h3.513v3.513h-3.513z" data-name="Path 10068" transform="translate(-3.558 -4.096)"/>
    <path id="prefix__Path_10069" d="M42.878 46.635a.878.878 0 0 0 .878-.878v-.878a.878.878 0 1 0-1.756 0v.878a.878.878 0 0 0 .878.878z" data-name="Path 10069" transform="translate(-5.994 -7.994)"/>
    <path id="prefix__Path_10070" d="M53.692 46.032a5.23 5.23 0 0 0-1.06-3.15 4.35 4.35 0 0 0-1-4.222 3.433 3.433 0 0 0 .3-1.41 3.513 3.513 0 0 0-7.026 0 3.433 3.433 0 0 0 .3 1.405 4.351 4.351 0 0 0-1 4.223 5.247 5.247 0 0 0 3.331 8.344v.957h-8.774v-4.47a5.248 5.248 0 0 0 3.331-8.343 4.35 4.35 0 0 0-1-4.224 3.433 3.433 0 0 0 .3-1.405 3.513 3.513 0 0 0-7.026 0 3.433 3.433 0 0 0 .3 1.405 4.351 4.351 0 0 0-1 4.223 5.247 5.247 0 0 0 3.331 8.344v1.073l-1.269-.847a.878.878 0 0 0-.975 1.461l2.244 1.5v1.287h-3.506v-2.638a.878.878 0 0 0-.878-.878h-2.634V8.269h2.635a.878.878 0 0 0 .878-.878V3.878A.878.878 0 0 0 32.615 3H4.513a.878.878 0 0 0-.878.878v3.513a.878.878 0 0 0 .878.878h2.634v40.4H4.513a.878.878 0 0 0-.878.878v2.635H1.878a.878.878 0 0 0 0 1.756h49.179a.878.878 0 1 0 0-1.756H49.3v-.957a5.274 5.274 0 0 0 4.391-5.19zm-19.32-3.513a3.493 3.493 0 0 1 .946-2.379.878.878 0 0 0 .159-.952 2.6 2.6 0 0 1 .84-3.162.878.878 0 0 0 .176-1.229 1.734 1.734 0 0 1-.364-1.06 1.756 1.756 0 1 1 3.513 0 1.734 1.734 0 0 1-.364 1.054.878.878 0 0 0 .176 1.229 2.6 2.6 0 0 1 .84 3.162.878.878 0 0 0 .16.952 3.486 3.486 0 0 1-1.69 5.773V43.4a.878.878 0 0 0-1.756 0v2.51a3.513 3.513 0 0 1-2.636-3.391zM5.391 4.756h26.346v1.757H5.391zM8.9 8.269h19.32v40.4h-5.265v-9.66a.878.878 0 0 0-.878-.878h-7.026a.878.878 0 0 0-.878.878v9.66H8.9zm12.3 40.397h-5.271v-8.782H21.2zM5.391 52.179v-1.756h26.346v1.756zm39.519-6.147a3.494 3.494 0 0 1 .946-2.379.878.878 0 0 0 .159-.952 2.6 2.6 0 0 1 .84-3.162.878.878 0 0 0 .176-1.229 1.734 1.734 0 0 1-.364-1.06 1.756 1.756 0 1 1 3.513 0 1.734 1.734 0 0 1-.364 1.054.878.878 0 0 0 .176 1.229 2.6 2.6 0 0 1 .84 3.162.878.878 0 0 0 .16.952A3.486 3.486 0 0 1 49.3 49.42v-2.51a.878.878 0 1 0-1.756 0v2.51a3.513 3.513 0 0 1-2.634-3.388z" data-name="Path 10070" transform="translate(-1 -3)"/>
    <path id="prefix__Path_10071" d="M42.513 25.782h6.147a.816.816 0 0 0 .439-.127 3.074 3.074 0 0 0-.544-6 3.5 3.5 0 0 0-6.449-.873 3.513 3.513 0 0 0 .407 7zm-.031-5.269l.13.014a.869.869 0 0 0 .887-.588 1.749 1.749 0 0 1 3.4.534.255.255 0 0 1 0 .06.878.878 0 0 0 1.054.885 1.342 1.342 0 0 1 1.585 1.29A1.317 1.317 0 0 1 48.484 24a.955.955 0 0 0-.1.026h-5.871a1.756 1.756 0 0 1-.031-3.513z" data-name="Path 10071" transform="translate(-5.629 -4.705)"/>
</svg>
