<svg xmlns="http://www.w3.org/2000/svg" id="prefix__bachelorette-party" width="52.926" height="54.744" viewBox="0 0 52.926 54.744">
    <defs>
        <style>
            .prefix__cls-1{fill:#ffa754}.prefix__cls-2{fill:#ffcb63}.prefix__cls-3{fill:#fff0d3}.prefix__cls-4{fill:#ff8646}.prefix__cls-5{fill:#ffb4a9}.prefix__cls-6{fill:#ffd9d4}.prefix__cls-8{fill:#ff4128}.prefix__cls-9{fill:#ff6753}.prefix__cls-11{fill:#85453d}.prefix__cls-12{fill:#a45e43}
        </style>
    </defs>
    <path id="prefix__Path_10015" d="M251.346 9.638h-2.138L247.069 7.5 246 13.538h4.277z" class="prefix__cls-1" data-name="Path 10015" transform="translate(-220.606 -6.698)"/>
    <path id="prefix__Path_10016" d="M218.138 9.638H216l1.069 3.9h3.208V7.5z" class="prefix__cls-2" data-name="Path 10016" transform="translate(-193.814 -6.698)"/>
    <path id="prefix__Path_10017" d="M451 52.5v3.208l1.6 1.6 1.6-1.6V52.5z" class="prefix__cls-3" data-name="Path 10017" transform="translate(-403.687 -46.887)"/>
    <path id="prefix__Path_10018" d="M454.208 82.5v2.138a1.6 1.6 0 1 1-3.208 0V82.5z" class="prefix__cls-2" data-name="Path 10018" transform="translate(-403.687 -73.679)"/>
    <path id="prefix__Path_10019" d="M31 52.5v3.208l1.6 1.6 1.6-1.6V52.5z" class="prefix__cls-3" data-name="Path 10019" transform="translate(-28.594 -46.887)"/>
    <path id="prefix__Path_10020" d="M34.208 82.5v2.138a1.6 1.6 0 1 1-3.208 0V82.5z" class="prefix__cls-2" data-name="Path 10020" transform="translate(-28.594 -73.679)"/>
    <path id="prefix__Path_10021" d="M347.955 8.569a1.868 1.868 0 0 0-3.377 0 1.871 1.871 0 1 0 0 3.742h3.377a1.871 1.871 0 1 0 0-3.742z" class="prefix__cls-4" data-name="Path 10021" transform="translate(-306.973 -6.698)"/>
    <path id="prefix__Path_10022" d="M379.663 68.329H376v7.93a4.81 4.81 0 0 0 3.663-7.93z" class="prefix__cls-5" data-name="Path 10022" transform="translate(-336.706 -61.023)"/>
    <path id="prefix__Path_10023" d="M337.3 69.637l-5.148-1.3a4.81 4.81 0 0 0 3.663 7.93c.885 0 1.6-2.154 1.6-4.811a13.442 13.442 0 0 0-.115-1.819z" class="prefix__cls-6" data-name="Path 10023" transform="translate(-296.518 -61.028)"/>
    <path id="prefix__Path_10024" d="M376 52.5l1.485 2.995a5.178 5.178 0 0 0 2.177-1.3A4.8 4.8 0 0 0 376 52.5z" data-name="Path 10024" transform="translate(-336.706 -46.887)" style="fill:#ff6337"/>
    <path id="prefix__Path_10025" d="M345.408 52.5a4.8 4.8 0 0 0-3.663 1.693 5.176 5.176 0 0 0 5.148 1.3c-.239-1.755-.814-2.993-1.485-2.993z" class="prefix__cls-4" data-name="Path 10025" transform="translate(-306.114 -46.887)"/>
    <path id="prefix__Path_10026" d="M374.208 172.5H371v5.884l5.346-1.426v-2.32a2.138 2.138 0 0 0-2.138-2.138z" class="prefix__cls-5" data-name="Path 10026" transform="translate(-332.241 -154.056)"/>
    <path id="prefix__Path_10027" d="M335.277 172.5h-2.139a2.138 2.138 0 0 0-2.138 2.138v2.32l4.811 2.138 1.6-.713v-3.746a2.138 2.138 0 0 0-2.134-2.137z" class="prefix__cls-6" data-name="Path 10027" transform="translate(-296.518 -154.056)"/>
    <path id="prefix__Path_10028" d="M380.068 208.915v-5.165a2.936 2.936 0 0 0-3.208-1.139l-1.693 8.085 3.3 7.841h3.208v-5.382a6.389 6.389 0 0 0-1.607-4.24z" class="prefix__cls-8" data-name="Path 10028" transform="translate(-335.962 -180.848)"/>
    <path id="prefix__Path_10029" d="M337.415 208.915v-6.3a2.945 2.945 0 0 0-1.6 1.138 2.939 2.939 0 0 0-4.811 0v14.788h8.019v-5.382a6.389 6.389 0 0 0-1.608-4.244z" class="prefix__cls-9" data-name="Path 10029" transform="translate(-296.518 -180.847)"/>
    <path id="prefix__Path_10030" d="M257.507 82.047L256 88.511a4.811 4.811 0 0 0 4.811-4.811z" data-name="Path 10030" transform="translate(-229.537 -73.274)" style="fill:#ff8d7e"/>
    <path id="prefix__Path_10031" d="M217.415 65.35a13.742 13.742 0 0 0-.1-1.652l-4.394-2.2a4.812 4.812 0 0 0 2.887 8.661c.892.003 1.607-2.152 1.607-4.809z" class="prefix__cls-5" data-name="Path 10031" transform="translate(-189.348 -54.925)"/>
    <path id="prefix__Path_10032" d="M256 52.5l1.593 4.259a9.6 9.6 0 0 0 3.218.553A4.811 4.811 0 0 0 256 52.5z" class="prefix__cls-11" data-name="Path 10032" transform="translate(-229.537 -46.887)"/>
    <path id="prefix__Path_10033" d="M231.884 52.5a4.79 4.79 0 0 0-2.887.963 9.647 9.647 0 0 0 4.48 3.3c-.091-2.401-.769-4.263-1.593-4.263z" class="prefix__cls-12" data-name="Path 10033" transform="translate(-205.421 -46.887)"/>
    <path id="prefix__Path_10034" d="M254.208 172.5H251l.535 17.642a4.811 4.811 0 0 0 4.321-2.693v-2.663l.491-2.663v-7.485a2.138 2.138 0 0 0-2.139-2.138z" class="prefix__cls-1" data-name="Path 10034" transform="translate(-225.071 -154.056)"/>
    <path id="prefix__Path_10035" d="M257.12 207.65l-5.254-6.567.19 6.261 4.573 5.631a4.791 4.791 0 0 0 .491-2.118z" data-name="Path 10035" transform="translate(-225.845 -179.583)" style="fill:#2dade3"/>
    <path id="prefix__Path_10036" d="M215.277 172.5h-2.138c-.069 0-.138 0-.206.01L211 176.2v9.128a4.811 4.811 0 0 0 4.811 4.812c.886 0 1.6-2.154 1.6-4.812v-10.69a2.138 2.138 0 0 0-2.134-2.138z" class="prefix__cls-2" data-name="Path 10036" transform="translate(-189.348 -154.056)"/>
    <path id="prefix__Path_10037" d="M212.933 172.6a2.138 2.138 0 0 0-1.933 2.125v1.564l6.415 7.9V178.2z" data-name="Path 10037" transform="translate(-189.348 -154.143)" style="fill:#49c9ff"/>
    <path id="prefix__Path_10038" d="M134.208 172.5H131v5.884l5.346-1.426v-2.32a2.138 2.138 0 0 0-2.138-2.138z" class="prefix__cls-11" data-name="Path 10038" transform="translate(-117.902 -154.056)"/>
    <path id="prefix__Path_10039" d="M95.277 172.5h-2.139A2.138 2.138 0 0 0 91 174.638v2.32l4.812 2.138 1.6-.713v-3.746a2.138 2.138 0 0 0-2.135-2.137z" class="prefix__cls-12" data-name="Path 10039" transform="translate(-82.179 -154.056)"/>
    <path id="prefix__Path_10040" d="M116.079 202.5a2.939 2.939 0 0 0-.8.112L111 212.123l4.277 6.415h3.208v-14.787a2.936 2.936 0 0 0-2.406-1.251z" class="prefix__cls-8" data-name="Path 10040" transform="translate(-100.041 -180.848)"/>
    <path id="prefix__Path_10041" d="M84.019 202.611a2.945 2.945 0 0 0-1.6 1.138 2.939 2.939 0 0 0-4.812 0v5.165a6.389 6.389 0 0 0-1.6 4.241v5.382h8.019z" class="prefix__cls-9" data-name="Path 10041" transform="translate(-68.783 -180.847)"/>
    <path id="prefix__Path_10042" d="M136 52.5v9.623a4.811 4.811 0 0 0 0-9.623z" class="prefix__cls-11" data-name="Path 10042" transform="translate(-122.367 -46.887)"/>
    <path id="prefix__Path_10043" d="M97.415 57.312c0-2.657-.718-4.811-1.6-4.811a4.811 4.811 0 1 0 0 9.623c.885-.001 1.6-2.155 1.6-4.812z" class="prefix__cls-12" data-name="Path 10043" transform="translate(-82.179 -46.887)"/>
    <path id="prefix__Path_10044" d="M107.955 8.569a1.868 1.868 0 0 0-3.377 0 1.871 1.871 0 0 0 0 3.742h3.377a1.871 1.871 0 1 0 0-3.742z" data-name="Path 10044" transform="translate(-92.634 -6.698)" style="fill:#40211d"/>
    <path id="prefix__Path_10045" d="M59.021 61.573a2.406 2.406 0 1 0 0-4.811h-.8v-3.346a2.41 2.41 0 0 0 1.6-2.268V45.8a.8.8 0 0 0-.8-.8h-3.208a.8.8 0 0 0-.8.8v5.346a2.41 2.41 0 0 0 1.6 2.268v3.346h-.8a.8.8 0 1 0 0 1.6h3.208a.8.8 0 1 1 0 1.6H53.3a2.945 2.945 0 0 0-2.828-2.138h-5.351a2.945 2.945 0 0 0-2.828 2.138h-1.828a2.945 2.945 0 0 0-2.828-2.138H32.29a2.945 2.945 0 0 0-2.828 2.138h-1.828a2.945 2.945 0 0 0-2.828-2.138H19.46a2.945 2.945 0 0 0-2.828 2.138h-5.726a.8.8 0 0 1 0-1.6h3.208a.8.8 0 1 0 0-1.6h-.8v-3.344a2.41 2.41 0 0 0 1.6-2.268V45.8a.8.8 0 0 0-.8-.8h-3.208a.8.8 0 0 0-.8.8v5.346a2.41 2.41 0 0 0 1.6 2.268v3.346h-.8a2.406 2.406 0 1 0 0 4.811h5.613v6.39a7.208 7.208 0 0 0-1.6 4.534v5.382a.8.8 0 0 0 .8.8h2.406v4.506L9.79 86.049a.8.8 0 0 0-.541.759v3.208a.8.8 0 1 0 1.6 0V87.38l8.333-2.862a.8.8 0 0 0 .541-.758v-5.08h4.811v14.382a.8.8 0 0 0 .548.761l3.208 1.069a.8.8 0 0 0 .507 0l3.208-1.069a.8.8 0 0 0 .548-.761V76.534a5.6 5.6 0 0 0 4.811 0v16.528a.8.8 0 0 0 .548.761l3.208 1.069a.8.8 0 0 0 .507 0l3.208-1.069a.8.8 0 0 0 .548-.761V78.68H50.2v5.079a.8.8 0 0 0 .541.759l8.333 2.862v2.635a.8.8 0 1 0 1.6 0v-3.208a.8.8 0 0 0-.541-.759L51.8 83.187V78.68h2.406a.8.8 0 0 0 .8-.8V72.5a7.208 7.208 0 0 0-1.6-4.534v-6.39zM56.615 46.6h1.6v4.544a.8.8 0 0 1-1.6 0zm-44.907 0h1.6v4.544a.8.8 0 0 1-1.6 0zm33.413 12.834h5.346a1.338 1.338 0 0 1 1.333 1.337v.629a3.729 3.729 0 0 0-4.01.513 3.729 3.729 0 0 0-4.01-.513v-.631a1.338 1.338 0 0 1 1.341-1.335zm-6.148 1.337v5.2l-5.228-6.535h3.891a1.338 1.338 0 0 1 1.337 1.335zm-7.2-1.233l7.2 9v2.926a4.04 4.04 0 0 1-.024.434l-8-9.846v-1.28a1.338 1.338 0 0 1 .825-1.234zm-12.314-.1h5.346a1.338 1.338 0 0 1 1.337 1.337v.625a3.729 3.729 0 0 0-4.01.513 3.729 3.729 0 0 0-4.01-.513v-.631a1.338 1.338 0 0 1 1.338-1.335zM16.519 72.5a5.606 5.606 0 0 1 1.4-3.711.8.8 0 0 0 .2-.531v-4.89a2.136 2.136 0 0 1 3.354.184.8.8 0 0 0 1.312 0 2.136 2.136 0 0 1 3.354-.184v13.709h-9.62zm12.029 20.786l-2.406-.8V78.68h.8a.8.8 0 0 0 .8-.8V61.573h1.6v9.89a5.594 5.594 0 0 0 1.6 3.923v17.1zm2.406-21.822v-6.869l7.361 9.065a4.008 4.008 0 0 1-7.361-2.2zm12.831 21.02l-2.406.8-2.406-.8v-17.1a5.638 5.638 0 0 0 1-1.4.78.78 0 0 0 .04-.078 5.58 5.58 0 0 0 .56-2.443v-9.89h1.6v16.306a.8.8 0 0 0 .8.8h.8zm9.623-15.407h-9.624V63.368a2.136 2.136 0 0 1 3.354.184.8.8 0 0 0 1.312 0 2.136 2.136 0 0 1 3.354-.184v4.887a.8.8 0 0 0 .2.531 5.606 5.606 0 0 1 1.4 3.711z" data-name="Path 10045" transform="translate(-8.5 -40.189)"/>
    <path id="prefix__Path_10046" d="M323.5 10.425a5.613 5.613 0 1 0 8.9-4.544 2.672 2.672 0 0 0-1.123-4.769 2.667 2.667 0 0 0-4.334 0 2.672 2.672 0 0 0-1.123 4.769 5.609 5.609 0 0 0-2.32 4.544zm5.613 4.01a4.007 4.007 0 0 1-3.513-5.947 5.992 5.992 0 0 0 7.018 0 4.007 4.007 0 0 1-3.509 5.947zm-2.462-7.171a4 4 0 0 1 4.923 0 4.388 4.388 0 0 1-4.922-.001zm.773-2.452a1.069 1.069 0 0 1 0-2.138.8.8 0 0 0 .724-.457 1.066 1.066 0 0 1 1.929 0 .8.8 0 0 0 .724.457 1.069 1.069 0 0 1 0 2.138z" data-name="Path 10046" transform="translate(-289.819)"/>
    <path id="prefix__Path_10047" d="M209.113 16.038a5.609 5.609 0 0 0 4.1-9.437l.946-3.449a.8.8 0 0 0-.773-1.014h-1.806l-1.9-1.9a.8.8 0 0 0-1.134 0l-1.9 1.9h-1.806a.8.8 0 0 0-.773 1.014l.946 3.449a5.609 5.609 0 0 0 4.1 9.437zm3.919-6.46a8.723 8.723 0 0 1-5.592-2.8 4.006 4.006 0 0 1 5.592 2.8zm-3.919 4.856a4.007 4.007 0 0 1-2.973-6.7 10.314 10.314 0 0 0 6.908 3.453 4.016 4.016 0 0 1-3.935 3.247zm-2.138-10.692a.8.8 0 0 0 .567-.235l1.571-1.572 1.571 1.571a.8.8 0 0 0 .567.235h1.087l-.489 1.784a5.6 5.6 0 0 0-5.473 0l-.489-1.784z" data-name="Path 10047" transform="translate(-182.65)"/>
    <path id="prefix__Path_10048" d="M83.5 10.425a5.613 5.613 0 1 0 8.9-4.544 2.672 2.672 0 0 0-1.12-4.769 2.667 2.667 0 0 0-4.334 0 2.672 2.672 0 0 0-1.123 4.769 5.609 5.609 0 0 0-2.323 4.544zm9.623 0a4.01 4.01 0 1 1-4.01-4.01 4.014 4.014 0 0 1 4.01 4.01zm-5.7-5.613a1.069 1.069 0 1 1 0-2.138.8.8 0 0 0 .724-.457 1.066 1.066 0 0 1 1.929 0 .8.8 0 0 0 .724.457 1.069 1.069 0 0 1 0 2.138z" data-name="Path 10048" transform="translate(-75.481)"/>
</svg>
