<svg xmlns="http://www.w3.org/2000/svg" id="prefix__bride_1_" width="55.496" height="64.574" data-name="bride (1)" viewBox="0 0 55.496 64.574">
    <defs>
        <style>
            .prefix__cls-3{fill:#fdda83}.prefix__cls-4{fill:#f4cfa6}
        </style>
    </defs>
    <path id="prefix__Path_11615" d="M92.037 42.279c-7.931-18.846-21.5-17.808-21.744-17.788-.241-.02-13.814-1.057-21.744 17.788A65.276 65.276 0 0 0 43.5 63.373a3.409 3.409 0 0 0 2.372 3.45l24.424 7.735 24.424-7.735a3.409 3.409 0 0 0 2.372-3.45 65.276 65.276 0 0 0-5.055-21.094z" data-name="Path 11615" transform="translate(-42.545 -21.388)" style="opacity:.28;fill:#ac93c1"/>
    <path id="prefix__Path_11616" d="M259.816 63.373a65.275 65.275 0 0 0-5.052-21.094c-7.931-18.846-21.5-17.808-21.745-17.788a13.309 13.309 0 0 0-3.317.274c4.575.879 12.881 4.334 18.428 17.514a65.275 65.275 0 0 1 5.052 21.094 3.409 3.409 0 0 1-2.372 3.45l-21.11 6.684 3.317 1.05 24.424-7.735a3.409 3.409 0 0 0 2.375-3.449z" data-name="Path 11616" transform="translate(-205.272 -21.388)" style="opacity:.3;fill:#ac93c1"/>
    <path id="prefix__Path_11618" d="M272.581 327.046L263.6 324.4l-1.408-.283a2.139 2.139 0 0 1-1.717-2.1v-2.028H256v.712a4.64 4.64 0 0 0 3.367 4.462l6.579 1.878a10.056 10.056 0 0 1 7.216 9.647v6.571h5.569a1.065 1.065 0 0 0 1.069-1.059v-5.507a10.056 10.056 0 0 0-7.219-9.647z" class="prefix__cls-3" data-name="Path 11618" transform="translate(-228.253 -279.636)"/>
    <circle id="prefix__Ellipse_1262" cx="5.813" cy="5.813" r="5.813" class="prefix__cls-3" data-name="Ellipse 1262" transform="translate(21.935 .946)"/>
    <g id="prefix__Group_6967" data-name="Group 6967" transform="translate(11.011 23.971)">
        <path id="prefix__Path_11619" d="M355.378 196.806h-2.326v-6.746h2.326a2.17 2.17 0 0 1 2.17 2.17v2.405a2.17 2.17 0 0 1-2.17 2.171z" class="prefix__cls-4" data-name="Path 11619" transform="translate(-324.075 -190.06)"/>
        <path id="prefix__Path_11620" d="M125.467 196.806h2.326v-6.746h-2.326a2.17 2.17 0 0 0-2.17 2.17v2.405a2.17 2.17 0 0 0 2.17 2.171z" class="prefix__cls-4" data-name="Path 11620" transform="translate(-123.297 -190.06)"/>
    </g>
    <path id="prefix__Path_11621" d="M161.9 113.417a13.581 13.581 0 0 1-13.581-13.581v-3.817A13.581 13.581 0 0 1 161.9 82.438a13.581 13.581 0 0 1 13.581 13.581v3.817a13.581 13.581 0 0 1-13.581 13.581z" data-name="Path 11621" transform="translate(-134.149 -72.041)" style="fill:#fed9a8"/>
    <path id="prefix__Path_11622" d="M233.02 82.438a13.611 13.611 0 0 0-3.317.409 13.586 13.586 0 0 1 10.265 13.173v3.817a16.273 16.273 0 0 1-7.694 13.561c.247.013.5.021.746.021a13.581 13.581 0 0 0 13.58-13.583v-3.817a13.581 13.581 0 0 0-13.58-13.581z" data-name="Path 11622" transform="translate(-205.272 -72.041)" style="fill:#f4cfa2"/>
    <path id="prefix__Path_11623" d="M161.289 71.744v-.206a15.974 15.974 0 0 0-15.974-15.974 15.974 15.974 0 0 0-15.975 15.973v.206a.782.782 0 0 0 .782.782h2.053a1.38 1.38 0 0 0 1.262-.822l1.143-4.291a2.1 2.1 0 0 1 3.388-1.063c2.974 2.512 8.192 6.176 13.323 6.176h9.216a.782.782 0 0 0 .782-.781z" class="prefix__cls-3" data-name="Path 11623" transform="translate(-117.567 -48.555)"/>
    <path id="prefix__Path_11624" d="M233.02 55.563a16.044 16.044 0 0 0-3.317.346 15.979 15.979 0 0 1 12.658 15.629v.206a.782.782 0 0 1-.782.782h6.633a.782.782 0 0 0 .782-.782v-.206a15.975 15.975 0 0 0-15.974-15.975z" data-name="Path 11624" transform="translate(-205.272 -48.555)" style="fill:#ff6d3a;opacity:.18"/>
    <path id="prefix__Path_11625" d="M158.617 427.843a2.086 2.086 0 0 0-.407-1.243 8.919 8.919 0 0 0-14.029-.4 2.579 2.579 0 0 1-3.978 0 8.919 8.919 0 0 0-14.029.4 2.086 2.086 0 0 0-.407 1.243v5.424h32.851v-5.424z" data-name="Path 11625" transform="translate(-114.443 -369.639)" style="fill:#fffcfd"/>
    <path id="prefix__Path_11626" d="M310.346 426.6a8.925 8.925 0 0 0-10.486-2.976 8.952 8.952 0 0 1 3.853 2.976 2.086 2.086 0 0 1 .407 1.243v5.424h6.633v-5.424a2.087 2.087 0 0 0-.407-1.243z" data-name="Path 11626" transform="translate(-266.58 -369.639)" style="fill:#f2f2f2"/>
    <path id="prefix__Path_11627" d="M203.035 202.254a.946.946 0 0 0-.946.946v1.734a.946.946 0 0 0 1.892 0V203.2a.946.946 0 0 0-.946-.946z" data-name="Path 11627" transform="translate(-181.14 -176.746)"/>
    <path id="prefix__Path_11628" d="M294.914 203.2v1.734a.946.946 0 1 0 1.892 0V203.2a.946.946 0 0 0-1.892 0z" data-name="Path 11628" transform="translate(-262.258 -176.746)"/>
    <path id="prefix__Path_11629" d="M230.871 268.711a.946.946 0 0 0-1.32.215 3.395 3.395 0 0 1-4.917 0 .946.946 0 0 0-1.535 1.1 5.254 5.254 0 0 0 7.988 0 .946.946 0 0 0-.216-1.315z" data-name="Path 11629" transform="translate(-199.344 -234.665)"/>
    <path id="prefix__Path_11630" d="M86.469 64.574a2.013 2.013 0 0 0 2.011-2.011v-5.506A11 11 0 0 0 80.585 46.5l-8.953-2.636a.967.967 0 0 0-.107-.028l-1.408-.283a1.2 1.2 0 0 1-.958-1.169v-1.11a14.375 14.375 0 0 0 2.073-1.04l.054-.033.228-.143.115-.074.182-.12.194-.133.107-.074a14.617 14.617 0 0 0 4.923-6.02v-.008q.076-.172.147-.347l.025-.06q.061-.151.118-.3l.032-.085q.056-.151.108-.3l.027-.078q.06-.177.116-.357c.019-.06.036-.121.054-.181l.055-.189.019-.066h.564a3.12 3.12 0 0 0 3.116-3.116v-2.409-.161-.052c0-.036 0-.072-.008-.107 0-.018 0-.036-.007-.054 0-.034-.008-.068-.013-.1l-.011-.06-.017-.094-.014-.062c-.004-.021-.013-.06-.021-.089l-.017-.06-.025-.089c-.009-.03-.013-.038-.02-.058s-.019-.059-.03-.088l-.023-.057-.034-.084-.026-.057-.037-.082-.028-.055-.041-.08-.034-.052c-.015-.026-.029-.052-.045-.077l-.034-.053c-.016-.025-.031-.05-.048-.074l-.037-.052-.05-.07-.04-.051-.053-.067-.044-.05-.055-.063-.047-.049-.057-.059-.006-.007c0-.009.008-.02.012-.029.014-.032.027-.064.04-.1s.018-.046.025-.069l.03-.105c.009-.035.013-.045.018-.069.009-.04.015-.08.02-.121 0-.02.007-.04.009-.06a1.741 1.741 0 0 0 .01-.186v-.206c0-.193 0-.386-.011-.578q0-.078-.006-.156c-.008-.176-.017-.351-.03-.525 0-.04-.006-.081-.01-.121q-.019-.231-.044-.46l-.026-.226c-.014-.117-.03-.233-.047-.349-.02-.14-.042-.279-.065-.418-.012-.073-.024-.145-.038-.217q-.031-.173-.066-.345l-.012-.055A16.933 16.933 0 0 0 70.46 7.451c.007-.07.011-.141.017-.211 0-.04.007-.08.009-.121.007-.12.01-.241.01-.361s0-.237-.009-.354v-.05c-.006-.1-.014-.2-.024-.3 0-.015 0-.031-.006-.046-.011-.1-.024-.2-.04-.3 0-.018-.007-.036-.01-.054-.016-.1-.034-.193-.054-.289v-.013C74.88 7.193 80.5 11.479 84.611 21.257a64.358 64.358 0 0 1 4.979 20.782 2.463 2.463 0 0 1-1.714 2.494l-2.779.88a.946.946 0 0 0 .571 1.8l2.779-.88a4.353 4.353 0 0 0 3.031-4.406 66.3 66.3 0 0 0-5.124-21.407C81.467 8.911 74.47 4.564 69.336 2.976a6.753 6.753 0 0 0-11.2 0c-5.131 1.588-12.128 5.935-17.015 17.548A66.3 66.3 0 0 0 36 41.931a4.353 4.353 0 0 0 3.031 4.406l2.757.873a.946.946 0 0 0 .571-1.8l-2.759-.877a2.463 2.463 0 0 1-1.714-2.494 64.356 64.356 0 0 1 4.979-20.782C46.98 11.479 52.6 7.193 57.128 5.345v.013c-.02.095-.037.19-.053.286 0 .019-.007.038-.01.058-.016.1-.028.2-.039.3 0 .017 0 .034-.007.052-.01.1-.018.2-.024.3v.054q-.009.176-.009.354c0 .12 0 .241.01.361 0 .04.006.08.009.121.005.071.009.141.017.211a16.933 16.933 0 0 0-9.844 12.081l-.012.055q-.035.172-.066.345l-.038.217c-.023.139-.045.278-.065.418-.017.116-.033.232-.047.349l-.026.226q-.025.229-.044.46c0 .04-.007.081-.01.121-.013.174-.022.349-.03.525q0 .078-.006.156c-.006.192-.011.384-.011.578v.206a1.709 1.709 0 0 0 .01.186c0 .02.006.04.009.06.006.04.012.081.02.121l.018.069c.006.023.019.071.03.105s.017.046.025.069.025.065.04.1c0 .01.007.02.012.029l-.006.007-.057.059-.047.049-.055.063-.044.05-.053.067-.04.051-.05.07-.037.052c-.017.024-.032.049-.048.074l-.034.053c-.016.025-.03.051-.045.077l-.031.054-.041.08-.028.055-.037.082c-.012.028-.018.037-.026.057l-.034.084-.023.057-.03.088-.02.058c-.007.02-.017.059-.025.089l-.017.06-.021.089-.014.062-.017.094-.011.06-.013.1c0 .018-.005.036-.007.054 0 .035-.006.071-.008.107v2.618a3.12 3.12 0 0 0 3.116 3.116h.561l.022.076.035.119c.024.084.049.167.075.25l.009.029q.207.659.476 1.3l.008.019a14.55 14.55 0 0 0 7.7 7.72v1.267a1.2 1.2 0 0 1-.958 1.169l-1.153.232a.962.962 0 0 0-.107.028L46.891 46.5A11 11 0 0 0 39 57.057v5.507a2.013 2.013 0 0 0 2.011 2.011h45.458M58.881 6.459c0-.027 0-.053.006-.08q.009-.116.023-.231c0-.024.006-.048.009-.073a4.845 4.845 0 0 1 .12-.585l.02-.069c.021-.073.044-.146.068-.218.009-.026.017-.053.027-.079.031-.088.065-.175.1-.262.011-.027.024-.052.036-.079.026-.059.054-.118.082-.176l.061-.118.074-.134a4.862 4.862 0 0 1 8.459 0l.076.137c.025.046.04.077.06.116q.044.09.085.181l.034.074c.037.087.071.175.1.264l.026.076q.037.11.069.221l.019.067a4.871 4.871 0 0 1 .12.587c0 .024.006.048.009.072q.015.115.023.231c0 .027 0 .053.006.08.006.1.01.2.01.3v.015c-.056-.017-.113-.031-.169-.047l-.2-.058q-.213-.059-.428-.112c-.094-.023-.189-.047-.283-.068l-.263-.057-.274-.055-.239-.046q-.233-.042-.468-.077l-.211-.03q-.173-.024-.346-.044l-.194-.022q-.256-.027-.513-.047l-.134-.013q-.216-.014-.433-.023l-.159-.006c-.183-.006-.367-.01-.551-.01s-.368 0-.551.01l-.159.006q-.217.009-.433.023l-.131.008q-.258.019-.513.047l-.194.022q-.174.02-.346.044l-.211.03q-.235.035-.468.077l-.239.046-.274.055-.263.057-.283.068q-.215.053-.428.112l-.2.058-.169.047v-.015c-.005-.098-.001-.197.005-.297zm-9.71 23.311a1.226 1.226 0 0 1-1.225-1.225v-2.404a1.226 1.226 0 0 1 1.223-1.225h.04V27.8c0 .151 0 .3.008.451v.117q.007.181.018.36c0 .033 0 .065.006.1q.033.464.094.92v.029zm30.046 32.912H48.258V58.2a1.147 1.147 0 0 1 .221-.679 7.973 7.973 0 0 1 12.542-.354 3.525 3.525 0 0 0 5.433 0A7.973 7.973 0 0 1 79 57.525a1.147 1.147 0 0 1 .221.679v4.478zM69.744 45.41l1.363.274 8.943 2.633a9.11 9.11 0 0 1 6.537 8.74v5.507a.119.119 0 0 1-.119.119h-5.36V58.2a3.051 3.051 0 0 0-.593-1.806A9.864 9.864 0 0 0 65 55.961a1.633 1.633 0 0 1-2.524 0 9.864 9.864 0 0 0-15.516.439 3.051 3.051 0 0 0-.593 1.806v4.478h-5.36a.119.119 0 0 1-.119-.119v-5.508a9.111 9.111 0 0 1 6.537-8.74l8.943-2.633 1.108-.223a3.093 3.093 0 0 0 2.477-3.024v-.613l.135.034.085.021q.441.111.889.195l.171.031.229.038.207.031.2.029q.2.025.392.045l.15.013c.1.009.191.017.287.024l.163.01q.147.009.295.014l.142.005c.145 0 .29.007.435.007s.277 0 .415-.006l.137-.005.276-.013.163-.01.249-.019.171-.015.245-.026.167-.019c.1-.012.2-.027.3-.041l.265-.042.212-.036.218-.042.17-.034.233-.051.142-.033.17-.04v.5a3.207 3.207 0 0 0 .185 1.049c.012.034.028.066.041.1s.037.1.059.143c0 .01.01.019.015.029a3.089 3.089 0 0 0 2.178 1.7zm6.629-17.61v.405c0 .09-.006.18-.011.27v.072c-.005.088-.011.177-.018.265 0 .025 0 .05-.007.075-.007.086-.015.173-.024.259 0 .028-.007.057-.01.085-.009.082-.019.163-.03.245 0 .034-.009.068-.014.1l-.033.22-.021.127-.033.187-.03.157-.03.148-.038.177c-.013.059-.029.125-.045.188s-.033.136-.051.2c-.024.092-.049.183-.075.275l-.055.184-.05.163-.057.174-.065.189c-.017.048-.033.1-.05.143-.04.11-.081.22-.125.328l-.02.049q-.061.153-.127.3l-.027.062c-.048.109-.1.218-.148.326v.008a12.782 12.782 0 0 1-3.7 4.6l-.079.061-.2.149-.115.084-.159.111q-.161.111-.325.218l-.053.034q-.116.075-.234.146l-.03.018a12.587 12.587 0 0 1-2.476 1.155q-.154.052-.31.1l-.214.064-.252.07-.249.064q-.146.036-.294.069l-.163.036q-.2.041-.4.076l-.143.024c-.141.023-.281.044-.423.062l-.073.008q-.2.025-.409.043l-.1.009q-.225.018-.452.028h-.1c-.159.006-.317.01-.477.01s-.342 0-.512-.011h-.086c-.158-.007-.315-.018-.472-.031l-.121-.011q-.225-.021-.448-.05l-.137-.019q-.188-.026-.375-.059l-.2-.036q-.16-.03-.32-.065l-.205-.045c-.114-.026-.228-.055-.341-.085l-.223-.06q-.164-.046-.328-.1c-.084-.026-.168-.054-.251-.082l-.148-.051a12.573 12.573 0 0 1-1.85-.819l-.014-.008q-.125-.068-.248-.139l-.093-.055-.208-.124q-.143-.088-.284-.179l-.026-.017a12.813 12.813 0 0 1-5.019-6.324l-.014-.04-.1-.286-.036-.11c-.024-.075-.047-.15-.069-.226l-.04-.133q-.044-.155-.085-.312c-.015-.057-.028-.115-.042-.173l-.043-.18-.039-.177c-.013-.059-.021-.1-.03-.148l-.03-.157-.033-.187-.021-.127-.033-.22c0-.034-.01-.068-.014-.1-.011-.081-.021-.163-.03-.245 0-.028-.007-.056-.01-.085-.009-.086-.017-.173-.024-.259 0-.025 0-.05-.007-.075-.007-.088-.013-.177-.018-.265v-.072c0-.09-.008-.18-.011-.27v-.068-3.274h.019q.065-.015.13-.034l.051-.016.1-.033.054-.021.092-.039.049-.022.109-.055.027-.014c.044-.024.087-.051.129-.078l.037-.025.089-.062.044-.034.078-.064.041-.036c.028-.025.055-.051.081-.077l.03-.029q.054-.054.1-.113l.02-.024c.026-.032.052-.064.077-.1l.031-.043c.02-.028.04-.057.059-.087l.03-.047c.019-.031.037-.062.054-.094l.024-.043c.024-.046.048-.094.069-.142a.944.944 0 0 0 .049-.138l1.133-4.291a1.17 1.17 0 0 1 .188-.394 1.139 1.139 0 0 1 .582-.411 1.191 1.191 0 0 1 .29-.053 1.136 1.136 0 0 1 .8.274c.163.138.332.278.5.418l.13.106q.206.167.42.336l.277.217.11.085a30.987 30.987 0 0 0 5.288 3.351l.024.012c.112.055.223.108.334.159l.177.083.192.086q.158.071.317.14l.039.017a16.7 16.7 0 0 0 4.884 1.324l.109.011.231.02q.187.014.366.022h.1c.147.005.291.009.43.009h6.659V27.8zm3.155-1.654v2.405a1.226 1.226 0 0 1-1.228 1.22h-.173v-.029q.061-.456.094-.92c0-.032 0-.065.006-.1q.011-.18.018-.36v-.117c0-.15.008-.3.008-.451v-2.877h.04a1.226 1.226 0 0 1 1.236 1.224zm-1.073-6.2l.005.025c.021.1.041.21.061.316l.031.177q.033.195.061.391c.014.1.028.2.04.3l.024.205c.014.134.027.269.038.4 0 .038.006.076.009.114q.017.231.026.463c0 .046 0 .092.005.138.006.171.01.342.01.513v.043h-9.051c-4.928 0-10.08-3.73-12.713-5.953-.063-.053-.127-.1-.193-.149l-.056-.039q-.079-.054-.161-.1l-.047-.029q-.1-.059-.21-.11l-.048-.021q-.086-.039-.175-.073l-.064-.024c-.07-.025-.141-.048-.213-.067h-.013c-.075-.02-.152-.037-.229-.051l-.067-.011q-.09-.015-.181-.024l-.059-.006q-.116-.009-.233-.01h-.064c-.049 0-.1 0-.147.006l-.08.007q-.068.006-.137.016l-.08.012c-.048.008-.1.018-.144.028l-.069.015c-.071.017-.141.036-.211.058a3.032 3.032 0 0 0-2.03 2.122l-1.119 4.2a.434.434 0 0 1-.372.211h-1.89v-.043c0-.172 0-.342.01-.513q0-.069.005-.138.01-.232.026-.463c0-.038.006-.076.009-.114.011-.135.024-.269.038-.4.007-.068.015-.137.024-.205.012-.1.026-.2.04-.3q.028-.2.061-.391l.031-.177c.019-.106.039-.211.061-.316l.005-.025A15.066 15.066 0 0 1 61.808 8.077l.048-.006q.153-.019.307-.035l.082-.008.277-.028.1-.008.261-.017.117-.003.265-.01h.95l.265.01.113.006.261.017.1.008.277.025.082.008q.154.016.307.035l.048.006a15.066 15.066 0 0 1 12.788 11.86z" data-name="Path 11630" transform="translate(-35.99)"/>
</svg>
