<svg xmlns="http://www.w3.org/2000/svg" width="34.517" height="38.357" viewBox="0 0 34.517 38.357">
    <defs>
        <style>
            .prefix__cls-1{fill:#fdda83}.prefix__cls-2{fill:#fdb441}
        </style>
    </defs>
    <g id="prefix__calendar_5_" data-name="calendar (5)" transform="translate(-25.627)">
        <g id="prefix__Group_6961" data-name="Group 6961" transform="translate(26.189 3.069)">
            <path id="prefix__Path_11592" d="M66.523 43.221V49H33.13v-5.779a2.248 2.248 0 0 1 2.247-2.247h28.9a2.248 2.248 0 0 1 2.246 2.247z" class="prefix__cls-1" data-name="Path 11592" transform="translate(-33.13 -40.974)"/>
            <g id="prefix__Group_6956" data-name="Group 6956" transform="translate(3.551)">
                <g id="prefix__Group_6954" data-name="Group 6954">
                    <path id="prefix__Path_11593" d="M83.332 44.9h-1.1a1.71 1.71 0 0 1-1.709-1.708v-2.219h1.124v2.214a.585.585 0 0 0 .585.584c.307.001 1.41 1.129 1.1 1.129z" class="prefix__cls-2" data-name="Path 11593" transform="translate(-80.52 -40.973)"/>
                </g>
                <g id="prefix__Group_6955" data-name="Group 6955" transform="translate(20.411)">
                    <path id="prefix__Path_11594" d="M355.791 44.9h-1.1a1.71 1.71 0 0 1-1.708-1.708v-2.219h1.117v2.214a.585.585 0 0 0 .584.584 1.965 1.965 0 0 1 1.107 1.129z" class="prefix__cls-2" data-name="Path 11594" transform="translate(-352.98 -40.973)"/>
                </g>
            </g>
            <g id="prefix__Group_6960" data-name="Group 6960" transform="translate(3.371 11.4)">
                <g id="prefix__Group_6957" data-name="Group 6957">
                    <path id="prefix__Path_11595" d="M81.337 196.888h-2.676a.535.535 0 0 1-.535-.535v-2.676a.535.535 0 0 1 .535-.535h2.676a.535.535 0 0 1 .535.535v2.676a.535.535 0 0 1-.535.535z" class="prefix__cls-1" data-name="Path 11595" transform="translate(-78.126 -193.142)"/>
                    <path id="prefix__Path_11596" d="M183.253 196.888h-2.676a.535.535 0 0 1-.535-.535v-2.676a.535.535 0 0 1 .535-.535h2.676a.535.535 0 0 1 .535.535v2.676a.535.535 0 0 1-.535.535z" class="prefix__cls-1" data-name="Path 11596" transform="translate(-172.407 -193.142)"/>
                    <path id="prefix__Path_11597" d="M285.169 196.888h-2.676a.535.535 0 0 1-.535-.535v-2.676a.535.535 0 0 1 .535-.535h2.676a.535.535 0 0 1 .535.535v2.676a.535.535 0 0 1-.535.535z" class="prefix__cls-1" data-name="Path 11597" transform="translate(-266.688 -193.142)"/>
                    <path id="prefix__Path_11598" d="M387.085 196.888h-2.676a.535.535 0 0 1-.535-.535v-2.676a.535.535 0 0 1 .535-.535h2.676a.535.535 0 0 1 .535.535v2.676a.535.535 0 0 1-.535.535z" class="prefix__cls-1" data-name="Path 11598" transform="translate(-360.969 -193.142)"/>
                </g>
                <g id="prefix__Group_6958" data-name="Group 6958" transform="translate(0 6.95)">
                    <path id="prefix__Path_11599" d="M81.337 289.661h-2.676a.535.535 0 0 1-.535-.535v-2.676a.535.535 0 0 1 .535-.535h2.676a.535.535 0 0 1 .535.535v2.676a.535.535 0 0 1-.535.535z" class="prefix__cls-1" data-name="Path 11599" transform="translate(-78.126 -285.915)"/>
                    <path id="prefix__Path_11600" d="M183.253 289.661h-2.676a.535.535 0 0 1-.535-.535v-2.676a.535.535 0 0 1 .535-.535h2.676a.535.535 0 0 1 .535.535v2.676a.535.535 0 0 1-.535.535z" class="prefix__cls-1" data-name="Path 11600" transform="translate(-172.407 -285.915)"/>
                    <path id="prefix__Path_11601" d="M285.169 289.661h-2.676a.535.535 0 0 1-.535-.535v-2.676a.535.535 0 0 1 .535-.535h2.676a.535.535 0 0 1 .535.535v2.676a.535.535 0 0 1-.535.535z" class="prefix__cls-1" data-name="Path 11601" transform="translate(-266.688 -285.915)"/>
                </g>
                <path id="prefix__Path_11602" d="M387.085 291.888h-2.676a.535.535 0 0 1-.535-.535v-2.676a.535.535 0 0 1 .535-.535h2.676a.535.535 0 0 1 .535.535v2.676a.535.535 0 0 1-.535.535z" class="prefix__cls-1" data-name="Path 11602" transform="translate(-360.969 -281.025)"/>
                <g id="prefix__Group_6959" data-name="Group 6959" transform="translate(0 13.9)">
                    <path id="prefix__Path_11603" d="M81.337 382.434h-2.676a.535.535 0 0 1-.535-.535v-2.676a.535.535 0 0 1 .535-.535h2.676a.535.535 0 0 1 .535.535v2.677a.535.535 0 0 1-.535.534z" class="prefix__cls-1" data-name="Path 11603" transform="translate(-78.126 -378.688)"/>
                    <path id="prefix__Path_11604" d="M183.253 382.434h-2.676a.535.535 0 0 1-.535-.535v-2.676a.535.535 0 0 1 .535-.535h2.676a.535.535 0 0 1 .535.535v2.677a.535.535 0 0 1-.535.534z" class="prefix__cls-1" data-name="Path 11604" transform="translate(-172.407 -378.688)"/>
                    <path id="prefix__Path_11605" d="M285.169 382.434h-2.676a.535.535 0 0 1-.535-.535v-2.676a.535.535 0 0 1 .535-.535h2.676a.535.535 0 0 1 .535.535v2.677a.535.535 0 0 1-.535.534z" class="prefix__cls-1" data-name="Path 11605" transform="translate(-266.688 -378.688)"/>
                </g>
            </g>
        </g>
        <path id="prefix__Path_11606" d="M53 18.838h2.676a1.1 1.1 0 0 0 1.1-1.1v-2.673a1.1 1.1 0 0 0-1.1-1.1H53a1.1 1.1 0 0 0-1.1 1.1v2.676a1.1 1.1 0 0 0 1.1 1.097zm.027-3.746h2.622v2.622h-2.622zM53 25.955h2.676a1.1 1.1 0 0 0 1.1-1.1v-2.673a1.1 1.1 0 0 0-1.1-1.1H53a1.1 1.1 0 0 0-1.1 1.1v2.676a1.1 1.1 0 0 0 1.1 1.097zm.027-3.746h2.622v2.622h-2.622zm-7.662-3.371h2.676a1.1 1.1 0 0 0 1.1-1.1v-2.673a1.1 1.1 0 0 0-1.1-1.1h-2.676a1.1 1.1 0 0 0-1.1 1.1v2.676a1.1 1.1 0 0 0 1.1 1.097zm.027-3.746h2.622v2.622h-2.622zM32.771 27.869H30.1a1.1 1.1 0 0 0-1.1 1.1v2.676a1.1 1.1 0 0 0 1.1 1.1h2.676a1.1 1.1 0 0 0 1.1-1.1v-2.679a1.1 1.1 0 0 0-1.105-1.097zm-.027 3.746h-2.622v-2.623h2.622zm.027-17.646H30.1a1.1 1.1 0 0 0-1.1 1.1v2.676a1.1 1.1 0 0 0 1.1 1.1h2.676a1.1 1.1 0 0 0 1.1-1.1v-2.68a1.1 1.1 0 0 0-1.105-1.097zm-.027 3.746h-2.622v-2.623h2.622zm12.621 8.074h2.676a1.1 1.1 0 0 0 1.1-1.1v-2.674a1.1 1.1 0 0 0-1.1-1.1h-2.676a1.1 1.1 0 0 0-1.1 1.1v2.676a1.1 1.1 0 0 0 1.1 1.097zm.027-3.746h2.622v2.622h-2.622zM57.331 2.568h-2.4v-.859A1.711 1.711 0 0 0 53.22 0h-.258a1.711 1.711 0 0 0-1.709 1.709v.859H34.517v-.859A1.711 1.711 0 0 0 32.809 0h-.258a1.711 1.711 0 0 0-1.709 1.709v.859h-2.4a2.816 2.816 0 0 0-2.813 2.813v30.166a2.812 2.812 0 0 0 2.809 2.809h28.9a2.812 2.812 0 0 0 2.809-2.809V5.381a2.816 2.816 0 0 0-2.813-2.813zm-4.954-.859a.586.586 0 0 1 .585-.585h.258a.586.586 0 0 1 .585.585v.859h-1.428zm-20.411 0a.586.586 0 0 1 .585-.585h.258a.586.586 0 0 1 .585.585v.859h-1.428v-.859zM59.02 35.547a1.687 1.687 0 0 1-1.686 1.686h-28.9a1.687 1.687 0 0 1-1.686-1.686 2.8 2.8 0 0 0 1.689.565h22.784a2.794 2.794 0 0 0 1.989-.824l5.811-5.811zm-6.384-1.278a2.4 2.4 0 0 0 .064-.569v-3.748a1.284 1.284 0 0 1 1.283-1.283h3.75a2.4 2.4 0 0 0 .567-.069zM59.02 10.6H35.079a.562.562 0 0 0 0 1.124H59.02v14.539a1.284 1.284 0 0 1-1.283 1.283h-3.75a2.409 2.409 0 0 0-2.406 2.406V33.7a1.284 1.284 0 0 1-1.281 1.286H28.44a1.691 1.691 0 0 1-1.689-1.686V11.721h6.081a.562.562 0 1 0 0-1.124h-6.081V5.381a1.691 1.691 0 0 1 1.689-1.69h2.4v1.652a1.711 1.711 0 0 0 1.709 1.709.562.562 0 1 0 0-1.124.586.586 0 0 1-.585-.585V3.691h19.29v1.652a1.711 1.711 0 0 0 1.709 1.709.562.562 0 1 0 0-1.124.586.586 0 0 1-.585-.585V3.691h4.954a1.691 1.691 0 0 1 1.688 1.69zM32.771 20.918H30.1a1.1 1.1 0 0 0-1.1 1.1v2.676a1.1 1.1 0 0 0 1.1 1.1h2.676a1.1 1.1 0 0 0 1.1-1.1v-2.679a1.1 1.1 0 0 0-1.105-1.097zm-.027 3.746h-2.622v-2.622h2.622zm4.986-5.826h2.676a1.1 1.1 0 0 0 1.1-1.1v-2.673a1.1 1.1 0 0 0-1.1-1.1H37.73a1.1 1.1 0 0 0-1.1 1.1v2.676a1.1 1.1 0 0 0 1.1 1.097zm.027-3.746h2.622v2.622h-2.622zm7.634 16.522a.562.562 0 0 0-1.123.027 1.1 1.1 0 0 0 1.1 1.1h2.676a1.1 1.1 0 0 0 1.1-1.1v-2.675a1.1 1.1 0 0 0-1.1-1.1h-2.679a1.1 1.1 0 0 0-1.1 1.1v.772a.562.562 0 1 0 1.124 0v-.745h2.622v2.622zm-7.661-5.826h2.676a1.1 1.1 0 0 0 1.1-1.1v-2.673a1.1 1.1 0 0 0-1.1-1.1H37.73a1.1 1.1 0 0 0-1.1 1.1v2.676a1.1 1.1 0 0 0 1.1 1.097zm.027-3.746h2.622v2.622h-2.622zm-.027 10.7h2.676a1.1 1.1 0 0 0 1.1-1.1v-2.676a1.1 1.1 0 0 0-1.1-1.1H37.73a1.1 1.1 0 0 0-1.1 1.1v2.676a1.1 1.1 0 0 0 1.1 1.096zm.027-3.746h2.622v2.622h-2.622z" data-name="Path 11606"/>
    </g>
</svg>
