<svg xmlns="http://www.w3.org/2000/svg" id="prefix__delete_3_" width="15.13" height="18.629" data-name="delete (3)" viewBox="0 0 15.13 18.629">
    <defs>
        <style>
            .prefix__cls-1{fill:#94a1c1}
        </style>
    </defs>
    <path id="prefix__Path_11144" d="M222.834 154.7a.436.436 0 0 0-.436.436v8.246a.436.436 0 0 0 .873 0v-8.246a.436.436 0 0 0-.437-.436zm0 0" class="prefix__cls-1" data-name="Path 11144" transform="translate(-212.695 -147.954)"/>
    <path id="prefix__Path_11145" d="M104.834 154.7a.436.436 0 0 0-.436.436v8.246a.436.436 0 0 0 .873 0v-8.246a.436.436 0 0 0-.437-.436zm0 0" class="prefix__cls-1" data-name="Path 11145" transform="translate(-99.843 -147.954)"/>
    <path id="prefix__Path_11146" d="M1.236 5.544v10.749a2.407 2.407 0 0 0 .64 1.66 2.148 2.148 0 0 0 1.559.674h8.254a2.148 2.148 0 0 0 1.559-.674 2.407 2.407 0 0 0 .64-1.66V5.544a1.667 1.667 0 0 0-.428-3.277h-2.234v-.545A1.714 1.714 0 0 0 9.5 0H5.625A1.714 1.714 0 0 0 3.9 1.722v.545H1.663a1.667 1.667 0 0 0-.428 3.277zm10.453 12.21H3.435a1.382 1.382 0 0 1-1.326-1.462V5.583h10.906v10.71a1.382 1.382 0 0 1-1.326 1.462zM4.77 1.722a.841.841 0 0 1 .855-.851H9.5a.841.841 0 0 1 .855.851v.545H4.77zM1.663 3.14h11.8a.785.785 0 1 1 0 1.571h-11.8a.785.785 0 1 1 0-1.571zm0 0" class="prefix__cls-1" data-name="Path 11146" transform="translate(.003 .002)"/>
    <path id="prefix__Path_11147" d="M163.834 154.7a.436.436 0 0 0-.436.436v8.246a.436.436 0 0 0 .873 0v-8.246a.436.436 0 0 0-.437-.436zm0 0" class="prefix__cls-1" data-name="Path 11147" transform="translate(-156.269 -147.954)"/>
</svg>
