<svg xmlns="http://www.w3.org/2000/svg" id="prefix__edit_2_" width="18.723" height="18.629" data-name="edit (2)" viewBox="0 0 18.723 18.629">
    <defs>
        <style>
            .prefix__cls-1{fill:#94a1c1}
        </style>
    </defs>
    <path id="prefix__Path_11142" d="M17.281 49.048a.466.466 0 0 0-.466.466v4.14a1.4 1.4 0 0 1-1.4 1.4H2.331a1.4 1.4 0 0 1-1.4-1.4V41.5a1.4 1.4 0 0 1 1.4-1.4h4.14a.466.466 0 1 0 0-.933h-4.14A2.334 2.334 0 0 0 0 41.5v12.155a2.334 2.334 0 0 0 2.331 2.331h13.084a2.334 2.334 0 0 0 2.331-2.331v-4.14a.466.466 0 0 0-.466-.466zm0 0" class="prefix__cls-1" data-name="Path 11142" transform="translate(0 -37.358)"/>
    <path id="prefix__Path_11143" d="M120.707.875a2.1 2.1 0 0 0-2.968 0l-8.319 8.319a.466.466 0 0 0-.12.205l-1.094 3.95a.466.466 0 0 0 .574.574l3.95-1.094a.466.466 0 0 0 .205-.12l8.319-8.319a2.1 2.1 0 0 0 0-2.968zM110.437 9.5l6.809-6.809 2.2 2.2-6.809 6.809zm-.439.88l1.754 1.754-2.427.672zm10.6-6.647l-.495.495-2.2-2.2.495-.495a1.166 1.166 0 0 1 1.648 0l.547.547a1.167 1.167 0 0 1 .007 1.651zm0 0" class="prefix__cls-1" data-name="Path 11143" transform="translate(-103.145 -.261)"/>
</svg>
