<svg xmlns="http://www.w3.org/2000/svg" id="prefix__groom_1_" width="51.301" height="58.987" data-name="groom (1)" viewBox="0 0 51.301 58.987">
    <defs>
        <style>
            .prefix__cls-3{fill:#ac93c1}.prefix__cls-4{fill:#e6e6e6}.prefix__cls-5{fill:#f4cfa6}
        </style>
    </defs>
    <path id="prefix__Path_11632" d="M252.719 294.109v2.657a2.228 2.228 0 0 0 1.789 2.184l6.507 1.61v-1.86l-1.466-.295a2.228 2.228 0 0 1-1.789-2.184v-2.113z" data-name="Path 11632" transform="translate(-227.446 -260.225)" style="fill:#f4c892"/>
    <path id="prefix__Path_11635" d="M192.529 353.617h5.34l5.247-19.652-7.917 2.08-7.917-2.08z" data-name="Path 11635" transform="translate(-169.548 -295.489)" style="fill:#fffcfd"/>
    <path id="prefix__Path_11636" d="M228.557 352.019l-3.573 1.865 1.945 4.308h3.257l1.945-4.308z" class="prefix__cls-3" data-name="Path 11636" transform="translate(-202.906 -311.463)"/>
    <path id="prefix__Path_11637" d="M238.162 416.979h-5.34l1.042-11.383h3.257z" class="prefix__cls-3" data-name="Path 11637" transform="translate(-209.841 -358.867)"/>
    <g id="prefix__Group_6969" data-name="Group 6969" transform="translate(17.734 38.476)">
        <path id="prefix__Path_11640" d="M188.738 339.417l6.461-3.372-7.917-2.08z" class="prefix__cls-4" data-name="Path 11640" transform="translate(-187.282 -333.965)"/>
        <path id="prefix__Path_11641" d="M263.916 333.965l-7.916 2.08 6.461 3.372z" class="prefix__cls-4" data-name="Path 11641" transform="translate(-248.082 -333.965)"/>
    </g>
    <g id="prefix__Group_6970" data-name="Group 6970" transform="translate(9.166 18.003)">
        <path id="prefix__Path_11642" d="M362.932 162.911h-2.291v-6.644h2.291a2.138 2.138 0 0 1 2.138 2.138v2.369a2.138 2.138 0 0 1-2.138 2.137z" class="prefix__cls-5" data-name="Path 11642" transform="translate(-332.101 -156.267)"/>
        <path id="prefix__Path_11643" d="M115.054 162.911h2.291v-6.644h-2.291a2.138 2.138 0 0 0-2.138 2.138v2.369a2.138 2.138 0 0 0 2.138 2.137z" class="prefix__cls-5" data-name="Path 11643" transform="translate(-112.916 -156.267)"/>
    </g>
    <path id="prefix__Path_11644" d="M153.268 70.742a13.377 13.377 0 0 1-13.377-13.377v-3.759a13.377 13.377 0 0 1 13.377-13.377 13.377 13.377 0 0 1 13.377 13.377v3.759a13.377 13.377 0 0 1-13.377 13.377z" data-name="Path 11644" transform="translate(-127.617 -35.594)" style="fill:#fed9a8"/>
    <path id="prefix__Path_11645" d="M232.39 40.228a13.413 13.413 0 0 0-3.074.356 13.382 13.382 0 0 1 10.3 13.021v3.759a16.088 16.088 0 0 1-7.56 13.372h.332a13.377 13.377 0 0 0 13.377-13.377V53.6a13.377 13.377 0 0 0-13.375-13.372z" data-name="Path 11645" transform="translate(-206.739 -35.593)" style="fill:#f4cfa2"/>
    <path id="prefix__Path_11646" d="M133.778 7.46h-4.552a13.935 13.935 0 0 0-13.935 13.935v4.3a2.136 2.136 0 0 1 1.864-1.093h.97a13.348 13.348 0 0 1 .826-4.629c5.915-1.676 11.927 2.9 18.464 2.9a13.5 13.5 0 0 0 7-1.624h.035a13.4 13.4 0 0 1 .427 3.356h.97a2.136 2.136 0 0 1 1.864 1.093v-4.3A13.934 13.934 0 0 0 133.778 7.46z" data-name="Path 11646" transform="translate(-105.851 -6.601)" style="fill:#fdda83"/>
    <path id="prefix__Path_11647" d="M233.984 7.46h-4.552c-.3 0-.593.01-.887.029a13.935 13.935 0 0 1 13.048 13.906v1.046a10.882 10.882 0 0 0 3.03-1.192h.035a13.4 13.4 0 0 1 .427 3.356h.97a2.136 2.136 0 0 1 1.864 1.093v-4.3A13.935 13.935 0 0 0 233.984 7.46z" data-name="Path 11647" transform="translate(-206.057 -6.601)" style="fill:#fec775"/>
    <path id="prefix__Path_11648" d="M199.029 169.673a.9.9 0 0 0-.9.9v1.708a.9.9 0 1 0 1.8 0v-1.708a.9.9 0 0 0-.9-.9z" data-name="Path 11648" transform="translate(-179.144 -150.125)"/>
    <path id="prefix__Path_11649" d="M299.115 173.185a.9.9 0 0 0 .9-.9v-1.708a.9.9 0 0 0-1.8 0v1.708a.9.9 0 0 0 .9.9z" data-name="Path 11649" transform="translate(-267.699 -150.125)"/>
    <path id="prefix__Path_11650" d="M228.577 242.564a.9.9 0 1 0-1.464-1.054 3.372 3.372 0 0 1-4.891 0 .9.9 0 1 0-1.464 1.054 5.145 5.145 0 0 0 7.82 0z" data-name="Path 11650" transform="translate(-199.017 -213.354)"/>
    <path id="prefix__Path_11651" d="M77.308 40.669a.859.859 0 1 0-.6 1.609 9.66 9.66 0 0 1 6.233 9v5.831a.156.156 0 0 1-.156.156H76.2V52.73a.9.9 0 1 0-1.8 0v4.538H63.417l7.741-10.1a2.388 2.388 0 0 0 .183-2.634L68.717 39.9l3.983 1.174a.859.859 0 1 0 .485-1.649l-6.014-1.771-.025-.007h-.009l-.048-.012-1.466-.295A1.372 1.372 0 0 1 64.528 36v-1.1a14.3 14.3 0 0 0 8.215-9.385h.609a3 3 0 0 0 3-3v-2.374a2.978 2.978 0 0 0-.274-1.249v-4.1A14.811 14.811 0 0 0 61.282 0h-4.553a14.724 14.724 0 0 0-10.245 4.122.859.859 0 0 0 1.191 1.24 13.013 13.013 0 0 1 9.055-3.643h4.552a13.09 13.09 0 0 1 13.075 13.075v2.524a2.976 2.976 0 0 0-.481-.127h-.019q-.115-.02-.234-.031h-.033c-.079-.006-.158-.01-.238-.01h-.137c0-.029 0-.059-.006-.088v-.029V17q-.01-.141-.023-.282V16.7l-.008-.094c0-.017 0-.035-.006-.053q-.016-.153-.035-.306c0-.026-.006-.053-.01-.079q-.029-.227-.066-.453l-.007-.044-.005-.029-.05-.28v-.006l-.021-.109-.008-.037-.054-.258-.009-.041-.015-.068-.006-.026c-.03-.129-.06-.258-.094-.387a.857.857 0 0 0-.842-.644h-.035a.86.86 0 0 0-.429.12 9.3 9.3 0 0 1-1.665.767 14.814 14.814 0 0 1-4.9.737 27.163 27.163 0 0 1-7.964-1.651c-.7-.221-1.414-.443-2.128-.649-2.835-.819-5.728-1.381-8.607-.565a.86.86 0 0 0-.572.529c-.05.135-.1.274-.146.419-.013.039-.027.078-.039.118v.015l-.017.051c-.034.107-.067.215-.1.325l-.041.144-.022.077-.016.058-.052.2-.04.162-.049.2-.005.025-.024.114-.031.145c-.023.109-.044.218-.063.323v.012l-.016.091-.01.061c-.022.129-.042.264-.062.409l-.022.17q-.019.153-.036.31c-.006.059-.013.118-.018.178l-.007.08q-.014.161-.024.317v.062h-.137c-.08 0-.16 0-.238.01h-.033q-.118.011-.234.031h-.019a2.967 2.967 0 0 0-.481.127v-2.514a13.087 13.087 0 0 1 1.614-6.3.86.86 0 1 0-1.506-.829 14.812 14.812 0 0 0-1.827 7.127v4.1a2.978 2.978 0 0 0-.274 1.249v2.369a3 3 0 0 0 3 3h.609a14.3 14.3 0 0 0 7.95 9.269v1.271a1.372 1.372 0 0 1-1.1 1.342l-1.2.241-.048.012h-.009l-.025.007-9.362 2.754a11.337 11.337 0 0 0-8.135 10.875v5.831a1.877 1.877 0 0 0 1.875 1.875h47.551a1.877 1.877 0 0 0 1.875-1.875v-5.831a11.387 11.387 0 0 0-7.348-10.612zM73.1 23.742c.02-.142.038-.284.053-.428v-.039q.025-.235.042-.472v-.073q.013-.193.021-.387v-.115c0-.152.008-.3.008-.457v-2.908h.111a1.259 1.259 0 0 1 .156.011l.038.006c.042.006.083.015.123.025l.03.008a1.282 1.282 0 0 1 .29.123l.018.011a1.291 1.291 0 0 1 .117.079l.016.012a1.282 1.282 0 0 1 .223.226l.015.021a1.291 1.291 0 0 1 .086.131 1.269 1.269 0 0 1 .165.625v2.369a1.28 1.28 0 0 1-1.278 1.278H73.1v-.046zm-28.446.046a1.28 1.28 0 0 1-1.278-1.278v-2.369a1.259 1.259 0 0 1 .25-.756l.015-.021a1.277 1.277 0 0 1 .223-.226l.016-.012a1.276 1.276 0 0 1 .12-.08l.018-.011a1.282 1.282 0 0 1 .29-.123l.03-.008c.041-.01.082-.019.123-.025l.038-.006a1.261 1.261 0 0 1 .156-.011h.111v2.908c0 .153 0 .305.008.457v.115q.008.194.021.387v.073q.017.237.042.472v.039q.023.215.053.428c0 .015 0 .031.006.046h-.253zm22.552 16.94l2.635 4.653a.672.672 0 0 1-.051.741l-6.17 8.056 3.591-13.45zm-1.5-1.046l-.8 2.987-3.539-1.848zm-1.782-1.309l-4.923 1.294-5.08-1.335a3.091 3.091 0 0 0 1.011-2.282v-.634c.057.017.114.031.171.047l.02.006q.315.089.633.163l.042.01.291.064.131.026q.216.043.433.079l.2.033.224.031.238.03.195.022q.207.022.415.037l.131.008q.172.011.344.019l.138.005c.153 0 .306.008.46.008s.29 0 .435-.007l.138-.005q.151-.006.3-.015l.153-.01c.11-.008.22-.017.329-.028l.18-.018c.106-.011.211-.024.316-.037l.2-.029.207-.032.223-.037.171-.032q.232-.044.462-.1l.111-.025c.092-.021.183-.044.275-.067l.1-.027c.065-.017.13-.032.195-.05V36a3.1 3.1 0 0 0 1.136 2.374zM46.759 24.36l-.029-.142-.031-.16-.032-.18-.022-.131-.032-.212-.015-.108-.029-.235c0-.03-.007-.06-.01-.09l-.024-.251c0-.026 0-.053-.007-.079-.007-.086-.012-.173-.018-.259v-.074c0-.088-.008-.176-.011-.264v-.071-4.087-.014c0-.147 0-.293.009-.438v-.106c.005-.122.013-.243.022-.364 0-.052.008-.1.012-.157q.016-.183.036-.366l.017-.138c.015-.121.032-.242.051-.363l.013-.084q.032-.2.072-.4l.018-.093q.043-.208.092-.414l.016-.067c.031-.128.065-.255.1-.381l.035-.124c.037-.126.075-.252.116-.377l.012-.035c.073-.017.145-.031.218-.046l.061-.013.171-.037.1-.019.168-.024.113-.016.133-.015.149-.017.073-.006c.07-.006.139-.013.209-.017h.041c2.531-.161 5.145.658 7.881 1.516a28.45 28.45 0 0 0 8.478 1.73 17.836 17.836 0 0 0 4.269-.477l.028-.007q.178-.044.353-.093c.219-.061.432-.127.642-.2l.095-.031q.54-.185 1.041-.413l.006.036q.038.232.068.465c0 .028.006.055.009.083q.024.2.042.4c0 .046.007.092.011.138q.013.174.022.349c0 .048.005.1.007.143.006.159.01.317.01.476v4.173c0 .088-.006.176-.011.264v.074c-.005.087-.011.173-.018.259 0 .026 0 .053-.007.079-.007.084-.015.168-.024.251 0 .03-.007.06-.01.09q-.013.118-.029.235c0 .036-.01.072-.015.108-.01.071-.02.141-.032.212l-.022.131-.032.18-.031.16-.029.142a12.563 12.563 0 0 1-8.12 9.228l-.15.052-.248.081q-.162.051-.325.1l-.219.06c-.111.029-.221.057-.333.083l-.208.046c-.105.023-.21.044-.316.064l-.194.035q-.186.032-.373.058l-.136.019q-.221.029-.444.049l-.12.011c-.156.013-.312.024-.468.031h-.085c-.169.007-.338.011-.507.011h-.387l-.242-.009h-.069l-.25-.016h-.05l-.272-.024h-.025a12.547 12.547 0 0 1-10.958-9.878zm9.879 16.462L53.1 42.67l-.8-2.987zm-5.838-.093l3.591 13.45-6.174-8.056a.672.672 0 0 1-.051-.741l2.634-4.653zm-7.189 16.54V52.73a.9.9 0 1 0-1.8 0v4.538H35.23a.156.156 0 0 1-.156-.156v-5.831a9.618 9.618 0 0 1 6.9-9.226l7.32-2.155-2.624 4.634a2.389 2.389 0 0 0 .183 2.634l7.741 10.1H43.611zm12.307-4.033l-2.366-8.863 1.471-.768 1.477 3.271zm1.358 4.018l.884-9.664h1.69l.884 9.664zm2.8-11.383h-2.144l-1.382-3.064 2.456-1.282 2.456 1.282zm1.432 1.007l1.48-3.278 1.471.768-2.366 8.863z" data-name="Path 11651" transform="translate(-33.355)"/>
</svg>
