<svg xmlns="http://www.w3.org/2000/svg" width="588.179" height="546.325" viewBox="0 0 588.179 546.325">
  <g id="Group_6888" data-name="Group 6888" transform="translate(0 -22.217)">
    <path id="Path_9604" data-name="Path 9604" d="M693.325,239.564s80.394-48.1,154.912-18.039c93.337,37.625,124.911,131.07,95.579,206.6-29.054,74.614-110.289,116.6-172.038,142.142-83.963,34.671-197.011,57.3-259.684,63.124-36.312-51.388-92.713-151.94-120.976-238.3-20.783-63.489-41.79-152.5-3.973-223.1C425.4,100.553,516.915,63.737,606.185,110.155,677.532,147.236,693.325,239.564,693.325,239.564Z" transform="translate(-366.219 -67.314)" fill="#f7f1fa"/>
    <g id="Group_5929" data-name="Group 5929" transform="translate(48.713 0)">
      <ellipse id="Ellipse_33" data-name="Ellipse 33" cx="174.235" cy="9.502" rx="174.235" ry="9.502" transform="translate(11.359 549.539)" fill="#e4dbeb"/>
      <g id="Group_5889" data-name="Group 5889" transform="translate(281.47 141.376)" opacity="0.7">
        <g id="Group_5875" data-name="Group 5875" transform="translate(19.833 8.919)">
          <path id="Path_9605" data-name="Path 9605" d="M648.7,173.6c7.088,4.171,11.321,12.118,12.779,20.213s.48,16.416-.762,24.544c-2.346,15.379-5.689,30.8-12.539,44.765-7.556,15.4-19.084,28.468-30.913,40.894a718.691,718.691,0,0,1-71.9,65.888c-1.147.316-2.3.615-3.467.869,36.33-63.428,35.934-131.789,74.43-193.918a46.9,46.9,0,0,1,5.279-3C630.095,169.81,640.6,168.837,648.7,173.6Z" transform="translate(-540.262 -136.597)" fill="#ea94de"/>
          <path id="Path_9606" data-name="Path 9606" d="M677.25,156.115a30.324,30.324,0,0,1,10.174,9.592c7.755,10.983,11.119,24.678,11.015,38.124s-3.5,26.688-8.3,39.248C670.048,295.742,626.472,336.023,580,367.916c-11.319,7.766-23.189,15.275-36.364,18.914a718.68,718.68,0,0,0,71.9-65.888c11.83-12.426,23.357-25.489,30.913-40.894,6.85-13.968,10.193-29.386,12.539-44.765,1.243-8.129,2.22-16.45.763-24.544s-5.691-16.041-12.778-20.213c-8.1-4.768-18.606-3.8-27.09.256a46.917,46.917,0,0,0-5.279,3l.018-.032c8.271-13.341,18.3-26.082,31.776-34.134C655.686,154.057,667.686,151.032,677.25,156.115Z" transform="translate(-538.527 -153.517)" fill="#ffbdf3"/>
          <g id="Group_5869" data-name="Group 5869" transform="translate(0 45.755)">
            <path id="Path_9607" data-name="Path 9607" d="M541.35,365.72a441.2,441.2,0,0,0,31.708-31.472A443.791,443.791,0,0,0,601.3,299.9q13.316-17.949,24.8-37.167a444.645,444.645,0,0,0,20.947-39.415,440.233,440.233,0,0,0,16.824-41.21q.91-2.6,1.788-5.208a.8.8,0,0,1,1.511.53,440.984,440.984,0,0,1-16.442,41.714q-9.251,20.366-20.5,39.741-11.226,19.324-24.34,37.467T577.9,331.24a440.314,440.314,0,0,1-31.42,31.986q-2.027,1.865-4.077,3.7c-.769.689-1.82-.52-1.053-1.207Z" transform="translate(-541.083 -176.376)" fill="#6a3499"/>
          </g>
          <g id="Group_5870" data-name="Group 5870" transform="translate(28.971 159.835)">
            <path id="Path_9608" data-name="Path 9608" d="M556.423,281.11c5.182-.076,9.792-3.261,14.036-5.891q7.161-4.441,14.14-9.174,7.029-4.771,13.859-9.824,6.8-5.026,13.385-10.329,6.617-5.326,13.014-10.919.8-.7,1.593-1.4a.8.8,0,0,1,1.053,1.209q-6.428,5.678-13.085,11.087t-13.531,10.541q-6.873,5.128-13.956,9.972-7.1,4.855-14.394,9.42c-2.3,1.439-4.6,2.914-7,4.187a22.265,22.265,0,0,1-7.292,2.58,16,16,0,0,1-1.956.138.807.807,0,0,1-.735-.863.82.82,0,0,1,.865-.733Z" transform="translate(-555.556 -233.369)" fill="#6a3499"/>
          </g>
          <g id="Group_5871" data-name="Group 5871" transform="translate(64.203 113.423)">
            <path id="Path_9609" data-name="Path 9609" d="M573.429,260.858q6.305-4.345,12.446-8.921t12.1-9.382q5.963-4.8,11.742-9.83,5.807-5.05,11.418-10.314,5.582-5.239,10.967-10.687.664-.673,1.323-1.345a.8.8,0,1,1,1.053,1.207q-5.359,5.471-10.917,10.739t-11.315,10.319q-5.753,5.053-11.694,9.886-5.966,4.858-12.116,9.484-6.116,4.606-12.4,8.979-.775.537-1.551,1.073a.828.828,0,0,1-1.131-.078.806.806,0,0,1,.078-1.129Z" transform="translate(-573.158 -210.182)" fill="#6a3499"/>
          </g>
          <g id="Group_5872" data-name="Group 5872" transform="translate(99.167 57.712)">
            <path id="Path_9610" data-name="Path 9610" d="M591.075,230.632a36.114,36.114,0,0,0,9.78-6.962,87.835,87.835,0,0,0,8.071-9.272c2.492-3.195,4.96-6.411,7.372-9.668s4.746-6.563,6.9-9.992a87.428,87.428,0,0,0,5.711-10.485c.2-.454.406-.911.6-1.369a.819.819,0,0,1,1.021-.49.81.81,0,0,1,.49,1.021,86.087,86.087,0,0,1-5.685,10.9c-2.124,3.485-4.448,6.846-6.856,10.138s-4.894,6.523-7.388,9.75a107.5,107.5,0,0,1-8.147,9.634,40.312,40.312,0,0,1-9.824,7.56c-.446.236-.9.46-1.357.673a.8.8,0,0,1-.695-1.443Z" transform="translate(-590.625 -182.35)" fill="#6a3499"/>
          </g>
          <g id="Group_5873" data-name="Group 5873" transform="translate(93.357 47.637)">
            <path id="Path_9611" data-name="Path 9611" d="M587.723,247.332q.24-6.921.891-13.819t1.713-13.741q1.066-6.873,2.538-13.669,1.462-6.771,3.327-13.443t4.121-13.221c.184-.534.37-1.071.559-1.605a.8.8,0,0,1,1.511.53q-2.3,6.506-4.2,13.143t-3.415,13.369c-1,4.444-1.86,8.937-2.59,13.445q-1.1,6.813-1.8,13.679t-.987,13.763q-.036.85-.066,1.7a.8.8,0,0,1-1.6-.13Z" transform="translate(-587.723 -177.316)" fill="#6a3499"/>
          </g>
          <g id="Group_5874" data-name="Group 5874" transform="translate(57.463 104.336)">
            <path id="Path_9612" data-name="Path 9612" d="M570.714,272.983A78.875,78.875,0,0,1,569.8,259.7a98.316,98.316,0,0,1,1.1-13.141c.656-4.418,1.565-8.8,2.636-13.131,1.077-4.366,2.324-8.687,3.659-12.981,1.325-4.258,2.738-8.487,4.167-12.708.176-.522.354-1.043.53-1.563a.8.8,0,0,1,1.511.53c-1.431,4.217-2.854,8.437-4.2,12.684s-2.608,8.515-3.719,12.827c-1.1,4.286-2.028,8.485-2.736,12.851a102.192,102.192,0,0,0-1.315,13.045,76.99,76.99,0,0,0,.619,12.957q.111.817.238,1.629a.8.8,0,1,1-1.575.284Z" transform="translate(-569.79 -205.643)" fill="#6a3499"/>
          </g>
        </g>
        <g id="Group_5884" data-name="Group 5884" transform="translate(10.478)">
          <g id="Group_5877" data-name="Group 5877" transform="translate(11.019 10.274)">
            <g id="Group_5876" data-name="Group 5876" transform="translate(4.068 7.519)">
              <path id="Path_9613" data-name="Path 9613" d="M557.781,185.536a16.054,16.054,0,0,1-3.425-4.528c-.967-1.743-1.859-3.531-2.728-5.322q-1.324-2.729-2.534-5.507t-2.312-5.629q-1.1-2.837-2.074-5.719c-.08-.234-.16-.47-.238-.707-.11-.332-.619-.144-.508.188q.967,2.894,2.052,5.749t2.3,5.679q1.2,2.807,2.526,5.559c.883,1.836,1.8,3.659,2.762,5.453a18.97,18.97,0,0,0,3.309,4.724c.168.164.342.322.52.474a.271.271,0,0,0,.348-.414Z" transform="translate(-543.946 -157.951)" fill="#6a3499"/>
            </g>
            <path id="Path_9614" data-name="Path 9614" d="M546.48,163.347a3.763,3.763,0,0,1-3.355-1.329,5.131,5.131,0,0,1-.889-5.1,4.3,4.3,0,0,1,2.6-2.568,3.292,3.292,0,0,1,3.449.893c1.141,1.339.833,3.355.334,5.04-.364,1.239-.929,2.6-2.136,3.061" transform="translate(-541.914 -154.195)" fill="#6a3499"/>
          </g>
          <g id="Group_5879" data-name="Group 5879" transform="translate(26.868)">
            <g id="Group_5878" data-name="Group 5878" transform="translate(3.221 7.47)">
              <path id="Path_9615" data-name="Path 9615" d="M557.494,183a16.008,16.008,0,0,1-2.092-5.276c-.466-1.938-.849-3.9-1.211-5.859q-.546-2.982-.971-5.983t-.725-6.039q-.3-3.027-.474-6.065c-.014-.248-.026-.5-.04-.747-.018-.348-.559-.3-.541.046q.159,3.051.445,6.089t.7,6.087q.414,3.027.953,6.031c.358,2.006.755,4.005,1.205,5.991a19.009,19.009,0,0,0,1.929,5.436c.118.2.242.4.372.6a.272.272,0,0,0,.448-.308Z" transform="translate(-551.441 -152.793)" fill="#6a3499"/>
            </g>
            <path id="Path_9616" data-name="Path 9616" d="M553.181,158.172A3.764,3.764,0,0,1,550.3,156a5.134,5.134,0,0,1,.5-5.148,4.288,4.288,0,0,1,3.187-1.783,3.3,3.3,0,0,1,3.087,1.781c.743,1.593-.094,3.455-1.023,4.946-.683,1.1-1.589,2.256-2.874,2.38" transform="translate(-549.832 -149.062)" fill="#6a3499"/>
          </g>
          <g id="Group_5881" data-name="Group 5881" transform="translate(40.696 5.365)">
            <g id="Group_5880" data-name="Group 5880" transform="translate(0 5.865)">
              <path id="Path_9617" data-name="Path 9617" d="M557.726,179.955a13.266,13.266,0,0,1-.53-4.65c.046-1.641.162-3.283.3-4.92q.2-2.489.512-4.968t.721-4.962q.411-2.471.929-4.926c.042-.2.084-.4.128-.6.06-.28-.381-.36-.44-.078q-.528,2.459-.957,4.938t-.75,4.994q-.321,2.5-.538,5c-.144,1.671-.26,3.349-.328,5.026a15.585,15.585,0,0,0,.366,4.74q.075.279.168.552a.224.224,0,0,0,.422-.146Z" transform="translate(-556.74 -154.672)" fill="#6a3499"/>
            </g>
            <path id="Path_9618" data-name="Path 9618" d="M558.89,158.886a3.1,3.1,0,0,1-1.823-2.35,4.232,4.232,0,0,1,1.507-3.987,3.545,3.545,0,0,1,2.92-.733,2.717,2.717,0,0,1,2.072,2.08c.248,1.429-.817,2.728-1.877,3.717a3.54,3.54,0,0,1-2.8,1.273" transform="translate(-556.476 -151.742)" fill="#6a3499"/>
          </g>
          <g id="Group_5882" data-name="Group 5882" transform="translate(39.106 67.289)">
            <path id="Path_9619" data-name="Path 9619" d="M562.053,183.79a88.813,88.813,0,0,1,1.319,12.624q.108,3.144.024,6.287c-.014.552-.024.869-.048,1.469q-.033.787-.074,1.573-.084,1.576-.208,3.149c-.334,4.25-.873,8.481-1.547,12.689s-1.487,8.411-2.372,12.588-1.847,8.365-2.82,12.536l-.36,1.543a1.013,1.013,0,0,0,.831,1.157,1.031,1.031,0,0,0,1.157-.831c.975-4.167,1.944-8.337,2.848-12.52.909-4.209,1.752-8.435,2.464-12.682.706-4.207,1.283-8.437,1.665-12.686a120.1,120.1,0,0,0,.488-12.9,90.568,90.568,0,0,0-1.1-12.636c-.084-.522-.172-1.041-.266-1.561a1.03,1.03,0,0,0-1.1-.9,1.019,1.019,0,0,0-.9,1.1Z" transform="translate(-555.946 -182.679)" fill="#6a3499"/>
          </g>
          <g id="Group_5883" data-name="Group 5883" transform="translate(0 14.27)">
            <path id="Path_9620" data-name="Path 9620" d="M559.109,205.133l1.583-36.921a21.173,21.173,0,0,1,1.207-7.4c.979-2.314,3.011-4.352,5.51-4.6a7.8,7.8,0,0,1,5.523,2.044c4.4,3.6,6.235,9.466,7,15.1.975,7.228.456,14.9-3.086,21.282s-10.559,11.127-17.827,10.509" transform="translate(-513.765 -156.191)" fill="#ea94de"/>
            <path id="Path_9621" data-name="Path 9621" d="M580.171,198.337c-5.226-4.342-10.513-8.745-14.478-14.262-3.017-4.2-5.234-8.987-8.767-12.761a24.173,24.173,0,0,0-11.748-6.892,7.959,7.959,0,0,0-5.452.168c-2.894,1.453-3.5,5.31-3.273,8.541a33.509,33.509,0,0,0,28.393,30.743,18.449,18.449,0,0,0,9.67-.741,9.815,9.815,0,0,0,6.177-7.08" transform="translate(-536.409 -148.342)" fill="#ea94de"/>
            <path id="Path_9622" data-name="Path 9622" d="M567.645,204.261c-3.965.857-7.975-1.393-10.9-4.205-8.479-8.147-10.947-21.64-6.683-32.6a15.469,15.469,0,0,1,3.981-6.211c3.629-3.163,9.256-3.3,13.567-1.163s7.422,6.187,9.44,10.557a29.273,29.273,0,0,1,2.04,19.494,22.97,22.97,0,0,1-12.2,15.022" transform="translate(-524.785 -153.735)" fill="#ffbdf3"/>
          </g>
          <path id="Path_9623" data-name="Path 9623" d="M552.5,190.407a15.835,15.835,0,0,1,3.827-6.906c2.79-2.674,6.812-3.519,10.609-4.25l6.153-1.183c1.946-.374,4.123-.7,5.765.4-1.415,4.193-4.714,7.436-7.951,10.457a12.875,12.875,0,0,1-2.616,2.044,13.468,13.468,0,0,1-5.787,1.291c-2.334-.1-7.542-.637-9.63-1.685" transform="translate(-520.289 -120.362)" fill="#6a3499"/>
        </g>
        <g id="Group_5886" data-name="Group 5886" transform="translate(38.252 194.674)">
          <g id="Group_5885" data-name="Group 5885" transform="translate(0 25.236)">
            <path id="Path_9624" data-name="Path 9624" d="M550.93,274.8a142.973,142.973,0,0,0,18.517,2.646,116.451,116.451,0,0,0,18.665-.07,98.235,98.235,0,0,0,16.93-2.932A88.464,88.464,0,0,0,620.4,268.8a77.694,77.694,0,0,0,13.841-8.471q.811-.625,1.6-1.269c.59-.48,1.3.462.71.941a78.271,78.271,0,0,1-13.815,8.955,87.54,87.54,0,0,1-15.339,6.051,98.07,98.07,0,0,1-16.81,3.315,115.6,115.6,0,0,1-18.815.456,138.813,138.813,0,0,1-18.715-2.346q-1.147-.219-2.292-.458c-.741-.154-.581-1.323.164-1.169Z" transform="translate(-550.284 -258.926)" fill="#6a3499"/>
          </g>
          <path id="Path_9625" data-name="Path 9625" d="M592.959,271.2a66.333,66.333,0,0,0,15.421.126,32.083,32.083,0,0,0,10.359-2.362,13.727,13.727,0,0,0,7.36-7.35,15.361,15.361,0,0,0,.825-4.558,10.671,10.671,0,0,0-.246-3.339,8.078,8.078,0,0,0-5.18-5.22,13.788,13.788,0,0,0-7.542-.212,25.826,25.826,0,0,0-13.913,8.841,41.85,41.85,0,0,0-7.632,14.82" transform="translate(-508.09 -244.764)" fill="#6a3499"/>
          <path id="Path_9626" data-name="Path 9626" d="M584.847,264.356a53.106,53.106,0,0,0,17.619,15.171,28.249,28.249,0,0,0,11.079,3.591,14.723,14.723,0,0,0,10.911-3.353,7.6,7.6,0,0,0,2.774-6.463c-.356-2.424-2.286-4.322-4.356-5.633a19.629,19.629,0,0,0-7.242-2.76,39.043,39.043,0,0,0-6.527-.346l-13.641.042a41.473,41.473,0,0,1-8.775-.6" transform="translate(-515.665 -228.601)" fill="#6a3499"/>
          <path id="Path_9627" data-name="Path 9627" d="M581.634,285.556a53.081,53.081,0,0,1,1.3-23.213,28.263,28.263,0,0,1,5.1-10.471,14.737,14.737,0,0,1,9.986-5.531,7.6,7.6,0,0,1,6.579,2.486c1.5,1.94,1.525,4.646,1.033,7.046a19.613,19.613,0,0,1-3.037,7.132,39.315,39.315,0,0,1-4.28,4.94l-9.494,9.794a41.252,41.252,0,0,0-5.659,6.736" transform="translate(-519.604 -246.318)" fill="#6a3499"/>
          <path id="Path_9628" data-name="Path 9628" d="M568.105,285.865a46.065,46.065,0,0,1,.9-20.359,24.021,24.021,0,0,1,4.4-9.134,12.681,12.681,0,0,1,8.775-4.746,6.9,6.9,0,0,1,5.847,2.254c1.347,1.717,1.4,4.093.991,6.2a16.648,16.648,0,0,1-2.608,6.225,33.3,33.3,0,0,1-3.733,4.288l-8.293,8.493a35.059,35.059,0,0,0-4.934,5.851" transform="translate(-533.17 -241.014)" fill="#6a3499"/>
          <path id="Path_9629" data-name="Path 9629" d="M556.483,281.469a35.886,35.886,0,0,1,1.257-15.263,19.907,19.907,0,0,1,3.479-6.966,10.108,10.108,0,0,1,6.535-3.811,4.6,4.6,0,0,1,4.2,1.513,5.659,5.659,0,0,1,.539,4.606,13.75,13.75,0,0,1-2.086,4.736,27.756,27.756,0,0,1-2.848,3.321l-6.3,6.6a29.481,29.481,0,0,0-3.769,4.524" transform="translate(-544.396 -237.222)" fill="#6a3499"/>
          <path id="Path_9630" data-name="Path 9630" d="M572.322,268.011a51.843,51.843,0,0,0,13.525,18.225,27.553,27.553,0,0,0,9.78,5.795,14.379,14.379,0,0,0,11.109-.853,7.424,7.424,0,0,0,4.027-5.561c.178-2.384-1.251-4.606-2.942-6.3a19.087,19.087,0,0,0-6.3-4.181,38.2,38.2,0,0,0-6.141-1.729l-13-2.884a40.559,40.559,0,0,1-8.231-2.452" transform="translate(-528.211 -224.589)" fill="#6a3499"/>
          <path id="Path_9631" data-name="Path 9631" d="M557.571,268.357a43.82,43.82,0,0,0,7.821,17.529,23.352,23.352,0,0,0,7.01,6.581,12.159,12.159,0,0,0,9.33,1.333,6.271,6.271,0,0,0,4.346-3.849c.586-1.938-.186-4.033-1.273-5.741a16.17,16.17,0,0,0-4.436-4.61,32.408,32.408,0,0,0-4.754-2.554l-10.2-4.768a34.122,34.122,0,0,1-6.345-3.535" transform="translate(-542.986 -224.243)" fill="#6a3499"/>
        </g>
        <g id="Group_5888" data-name="Group 5888" transform="translate(0 78.25)">
          <g id="Group_5887" data-name="Group 5887" transform="translate(25.325 32.564)">
            <path id="Path_9632" data-name="Path 9632" d="M558.572,290.463a142.771,142.771,0,0,0,2.89-18.483,116.225,116.225,0,0,0,.178-18.663,98.293,98.293,0,0,0-2.706-16.968,88.636,88.636,0,0,0-5.445-15.427,77.764,77.764,0,0,0-8.287-13.954q-.612-.82-1.249-1.621c-.47-.6.48-1.291.951-.7a78.32,78.32,0,0,1,8.771,13.932A87.5,87.5,0,0,1,559.523,234a98.135,98.135,0,0,1,3.092,16.854,115.379,115.379,0,0,1,.206,18.82,138.892,138.892,0,0,1-2.594,18.682q-.234,1.144-.488,2.286c-.164.739-1.331.562-1.167-.178Z" transform="translate(-543.827 -204.423)" fill="#6a3499"/>
          </g>
          <path id="Path_9633" data-name="Path 9633" d="M555.935,222.346a66.422,66.422,0,0,0,.33-15.419,32.038,32.038,0,0,0-2.226-10.389,13.728,13.728,0,0,0-7.25-7.456,15.4,15.4,0,0,0-4.546-.887,10.64,10.64,0,0,0-3.343.2,8.074,8.074,0,0,0-5.288,5.108,13.784,13.784,0,0,0-.312,7.54,25.824,25.824,0,0,0,8.657,14.028,41.807,41.807,0,0,0,14.716,7.83" transform="translate(-529.42 -188.154)" fill="#6a3499"/>
          <path id="Path_9634" data-name="Path 9634" d="M549.133,234.306a53.119,53.119,0,0,0,15.4-17.416,28.247,28.247,0,0,0,3.737-11.031,14.734,14.734,0,0,0-3.209-10.955,7.6,7.6,0,0,0-6.425-2.858c-2.428.324-4.354,2.228-5.689,4.282a19.571,19.571,0,0,0-2.858,7.2,39.211,39.211,0,0,0-.432,6.521l-.14,13.639a41.311,41.311,0,0,1-.715,8.769" transform="translate(-513.513 -184.305)" fill="#6a3499"/>
          <path id="Path_9635" data-name="Path 9635" d="M570.184,229.1a53.1,53.1,0,0,1-23.2-1.607,28.265,28.265,0,0,1-10.4-5.24,14.725,14.725,0,0,1-5.4-10.058c-.136-2.438.62-5.078,2.574-6.543s4.666-1.465,7.058-.941a19.612,19.612,0,0,1,7.092,3.131,39.213,39.213,0,0,1,4.882,4.346l9.666,9.622a41.417,41.417,0,0,0,6.662,5.749" transform="translate(-531.174 -171.897)" fill="#6a3499"/>
          <path id="Path_9636" data-name="Path 9636" d="M570.329,241.064a46.079,46.079,0,0,1-20.345-1.169,24.032,24.032,0,0,1-9.076-4.52,12.682,12.682,0,0,1-4.628-8.837,6.906,6.906,0,0,1,2.33-5.817c1.737-1.323,4.113-1.347,6.207-.909a16.688,16.688,0,0,1,6.191,2.692,33.353,33.353,0,0,1,4.239,3.789l8.381,8.4a35.007,35.007,0,0,0,5.785,5.01" transform="translate(-526.067 -156.699)" fill="#6a3499"/>
          <path id="Path_9637" data-name="Path 9637" d="M565.8,249.984a35.841,35.841,0,0,1-15.245-1.461,19.926,19.926,0,0,1-6.918-3.569,10.115,10.115,0,0,1-3.725-6.587,4.613,4.613,0,0,1,1.569-4.175,5.671,5.671,0,0,1,4.614-.476,13.816,13.816,0,0,1,4.708,2.148,27.767,27.767,0,0,1,3.281,2.892l6.518,6.383a29.276,29.276,0,0,0,4.474,3.829" transform="translate(-522.446 -142.78)" fill="#6a3499"/>
          <path id="Path_9638" data-name="Path 9638" d="M552.634,244.836a51.8,51.8,0,0,0,18.4-13.281,27.565,27.565,0,0,0,5.923-9.7,14.377,14.377,0,0,0-.7-11.119,7.418,7.418,0,0,0-5.506-4.1c-2.382-.21-4.622,1.189-6.335,2.858a19.109,19.109,0,0,0-4.266,6.247,38,38,0,0,0-1.81,6.117l-3.059,12.959a40.356,40.356,0,0,1-2.56,8.2" transform="translate(-509.679 -169.667)" fill="#6a3499"/>
          <path id="Path_9639" data-name="Path 9639" d="M552.784,254.693a43.829,43.829,0,0,0,17.633-7.588,23.315,23.315,0,0,0,6.671-6.922,12.162,12.162,0,0,0,1.459-9.312,6.281,6.281,0,0,0-3.793-4.4c-1.927-.61-4.035.134-5.757,1.2a16.138,16.138,0,0,0-4.668,4.376,32.142,32.142,0,0,0-2.616,4.718l-4.9,10.136a34.125,34.125,0,0,1-3.619,6.3" transform="translate(-509.529 -149.99)" fill="#6a3499"/>
        </g>
      </g>
      <path id="Path_9643" data-name="Path 9643" d="M491.311,224.709a89.366,89.366,0,0,0-7.34-15.062c-3.319-5.232-7.582-10.1-11.486-15.1a113.227,113.227,0,0,1-11.9-18.317c-3.01-5.955-6-12.8-13.783-15.5,2.082,24.767,17.042,57.572,35.86,68.547" transform="translate(-334.214 3.994)" fill="#f9a9a0"/>
      <path id="Path_9644" data-name="Path 9644" d="M432.922,141.244a20.321,20.321,0,0,0-20.7,12.961,9.449,9.449,0,0,0-.5,5.915c.59,1.926,2.41,3.567,4.392,3.385s3.427-2.014,4.292-3.839c1.491-3.145,2.028-6.66,3.265-9.914s3.477-6.455,6.806-7.336" transform="translate(-369.638 -15.627)" fill="#f9a9a0"/>
      <g id="Group_5928" data-name="Group 5928" transform="translate(12.671 48.26)">
        <path id="Path_9645" data-name="Path 9645" d="M433.169,134.979s-7.288-2.328-10.391,0-5.2,4.824-4.792,8.7,3.037,3.947,4.117,2.632,2.26-.136,3.845-1.687,1.687-.979,2.5-2.16,2.864-3.633,3.545-3.873S433.169,134.979,433.169,134.979Z" transform="translate(-375.8 -71.088)" fill="#f9a9a0"/>
        <g id="Group_5918" data-name="Group 5918" transform="translate(102.844 25.701)">
          <g id="Group_5891" data-name="Group 5891" transform="translate(75.724 363.314)">
            <path id="Path_9646" data-name="Path 9646" d="M486.1,330.575c6.615,20.371,14.44,40.473,19.554,60.214,1.914,7.386,5.034,15.707,4.045,23.273-.186,1.409-.412,3.061.6,4.059,1.725,1.705,4.48-.4,5.923-2.354,2.526-3.417,5.12-6.984,5.947-11.151.655-3.293.156-6.758,1-10.006.817-3.127,2.872-6.183,2.092-9.32-1.039-4.179-6.211-5.559-9.292-8.567-3.018-2.947-3.905-7.388-4.624-11.546q-5.87-33.988-9.706-68.288" transform="translate(-486.096 -296.889)" fill="#f9a9a0"/>
            <path id="Path_9647" data-name="Path 9647" d="M508.015,338.1c1.145,5.21.648,8.815-.1,14.1a17.941,17.941,0,0,1-2.522,7.762,7.859,7.859,0,0,1-7.56,2.826c-.246,2.942.066,6.473-.18,9.418a9.2,9.2,0,0,0,.124,3.289,3.114,3.114,0,0,0,2.168,2.284c1.273.268,2.5-.562,3.5-1.4,3.883-3.259,7.2-7.606,7.776-12.644.18-1.593.084-3.215.354-4.794.839-4.894,4.422-9.086,4.314-14.048-.084-3.893-4.083-6.417-7.87-6.792" transform="translate(-474.607 -255.614)" fill="#fff"/>
            <path id="Path_9648" data-name="Path 9648" d="M507.961,340.681c.172,4.2,3.016,7.782,4.165,11.824a1.219,1.219,0,0,1,.056.647c-.088.314-.4.5-.668.689-.561.38-1.2.737-1.445.412-.424-1.211-1.3-3.3-1.839-4.45a19.979,19.979,0,0,0-3.027-5.052" transform="translate(-466.957 -253.025)" fill="#fff"/>
          </g>
          <g id="Group_5892" data-name="Group 5892" transform="translate(170.589 336.05)">
            <path id="Path_9649" data-name="Path 9649" d="M552.138,315.341c20.473,6.287,41.422,11.43,60.52,18.581,7.146,2.676,15.747,4.9,21.374,10.056,1.047.961,2.268,2.1,3.667,1.842,2.388-.434,2.244-3.9,1.475-6.2-1.345-4.031-2.774-8.2-5.711-11.275-2.32-2.426-5.443-4.007-7.614-6.567-2.092-2.464-3.413-5.9-6.429-7.066-4.017-1.549-8.117,1.892-12.348,2.684-4.148.779-8.291-1.045-12.106-2.846q-31.2-14.718-61.477-31.28" transform="translate(-533.489 -283.268)" fill="#f9a9a0"/>
            <path id="Path_9650" data-name="Path 9650" d="M572.347,301.382c4.924,2.054,7.588,4.532,11.483,8.177a17.948,17.948,0,0,1,4.9,6.525,7.852,7.852,0,0,1-2.03,7.81c2.268,1.892,5.338,3.665,7.606,5.557a9.226,9.226,0,0,0,2.762,1.789,3.126,3.126,0,0,0,3.117-.462c.951-.889.975-2.37.863-3.667-.438-5.05-2.09-10.265-5.883-13.627-1.2-1.065-2.584-1.916-3.721-3.047-3.523-3.5-4.9-8.837-9.022-11.6-3.237-2.166-7.6-.342-10.08,2.544" transform="translate(-494.567 -268.625)" fill="#fff"/>
            <path id="Path_9651" data-name="Path 9651" d="M576.643,298.011c3.535,2.27,8.1,2,12.072,3.381a1.2,1.2,0,0,1,.56.326,1.417,1.417,0,0,1,.18.941c-.01.679-.088,1.407-.492,1.421-1.237-.348-3.449-.827-4.7-1.049a19.889,19.889,0,0,0-5.873-.426" transform="translate(-490.264 -268.501)" fill="#fff"/>
          </g>
          <g id="Group_5917" data-name="Group 5917">
            <path id="Path_9652" data-name="Path 9652" d="M472.1,119.571a27.063,27.063,0,0,0-9.016,20.275c0,13.137,7.49,32.3-1.575,41.793s16.045,2.27,18.271-7.318,3.325-13.285-2.448-21.616-2.078-15.653-2.078-15.653" transform="translate(-436.968 -111.186)" fill="#022035"/>
            <path id="Path_9653" data-name="Path 9653" d="M504.065,146.427s-16.592,13.93.841,23.834c9.542,5.42,13.265,7.4,12.688,21.938s-15.923,31.032-15.923,31.032l-45.8-16.586s-9.754-45.273,1.281-52.4c7.909-5.1,23.477,10.633,26.47-11" transform="translate(-444.636 -87.472)" fill="#f9a9a0"/>
            <path id="Path_9654" data-name="Path 9654" d="M468.933,141.881c.45,3.921-.156,8.387-2.688,11.413a28.271,28.271,0,0,0,10.477,1.483,16.183,16.183,0,0,0,3.705-.576c2.936-.869,5.385-2.862,7.746-4.81l5.841-4.816" transform="translate(-430.255 -88.839)" fill="#ea918b"/>
            <path id="Path_9655" data-name="Path 9655" d="M471.046,123.453c-3.593,5.809-6.774,12.448-7.266,19.262a25.651,25.651,0,0,0,.58,8.975c.815,2.934,3.465,5.931,5.194,8.439a21.749,21.749,0,0,0,4.826,5.28c5.164,3.813,12.576,3.661,18.247.653s10.829-7.04,13.379-12.931,2.65-13.687,3.825-20" transform="translate(-432.859 -107.298)" fill="#f9a9a0"/>
            <path id="Path_9656" data-name="Path 9656" d="M469,126.046s4.562,4.7,11.037,4.358c0,0,7.582,17.8,23.99,23.878s-.875-14.554-.875-14.554L485.643,121.52l-8.815-.931Z" transform="translate(-427.499 -110.166)" fill="#ea918b"/>
            <path id="Path_9657" data-name="Path 9657" d="M486.4,134.542a13.384,13.384,0,0,1-1.711-.338c.34,1.3.763,2.576,1.153,3.863.2-.683.4-1.357.578-2.136C486.508,135.555,486.788,134.562,486.4,134.542Z" transform="translate(-411.78 -96.529)" fill="none"/>
            <path id="Path_9658" data-name="Path 9658" d="M467.487,133.689c-.226-1.5-.683-3.291-2.132-3.751a2.527,2.527,0,0,0-2.958,1.705,3.971,3.971,0,0,0,.779,3.553,9.829,9.829,0,0,0,2.932,2.358" transform="translate(-434.264 -100.892)" fill="#f9a9a0"/>
            <g id="Group_5912" data-name="Group 5912" transform="translate(30.756 29.018)">
              <g id="Group_5893" data-name="Group 5893" transform="translate(15.044 21.177)">
                <path id="Path_9659" data-name="Path 9659" d="M471.158,140.872a1.97,1.97,0,0,0,.178.4,2.54,2.54,0,0,0,.262.36,3.387,3.387,0,0,0,.651.568,4.893,4.893,0,0,0,.791.434,4.784,4.784,0,0,0,.758.264,3.518,3.518,0,0,0,.765.118,3.267,3.267,0,0,0,.394-.016c.18-.014.362-.034.541-.062a5.636,5.636,0,0,0,1.749-.593,7.965,7.965,0,0,0,1.567-1.127c.062-.056.122-.112.184-.17a.334.334,0,0,0,.022-.474.336.336,0,0,0-.474-.02,9.648,9.648,0,0,1-1.025.845l.07-.05a6.059,6.059,0,0,1-1.015.578c-.1.044-.2.084-.3.122l.08-.03a5.207,5.207,0,0,1-1.045.27c-.1.016-.21.03-.316.04l.086-.008a4.377,4.377,0,0,1-.486.024,2.8,2.8,0,0,1-.39-.04l.088.014a4.185,4.185,0,0,1-.865-.248c-.086-.034-.17-.07-.254-.108l.082.038a4.185,4.185,0,0,1-.917-.572l.068.056a2.539,2.539,0,0,1-.452-.484l.05.07a1.689,1.689,0,0,1-.208-.388l.03.08-.016-.042a.359.359,0,0,0-.144-.206.333.333,0,0,0-.464.1.328.328,0,0,0-.044.258Z" transform="translate(-471.146 -140.459)" fill="#2e2014"/>
              </g>
              <g id="Group_5894" data-name="Group 5894" transform="translate(6.988 5.668)">
                <path id="Path_9660" data-name="Path 9660" d="M472.511,134.761c-.068.056-.138.11-.21.16l.07-.048a3.224,3.224,0,0,1-.723.378l.08-.03a3.39,3.39,0,0,1-.845.194l.086-.008a3.374,3.374,0,0,1-.875-.028l.09.014a3.138,3.138,0,0,1-.783-.242l.082.038a3.282,3.282,0,0,1-.717-.458l.068.056a3.36,3.36,0,0,1-.585-.643l.048.072a3.4,3.4,0,0,1-.39-.747l.03.082a3.063,3.063,0,0,1-.154-.58.353.353,0,0,0-.146-.208.348.348,0,0,0-.256-.044.338.338,0,0,0-.208.146l-.038.08a.33.33,0,0,0-.006.176,3.577,3.577,0,0,0,.2.717,3.27,3.27,0,0,0,.3.588,3.783,3.783,0,0,0,.456.585,3.647,3.647,0,0,0,.57.48,3.454,3.454,0,0,0,.651.35,3.084,3.084,0,0,0,.652.19,3.67,3.67,0,0,0,.755.062,3.683,3.683,0,0,0,1.465-.344,3.469,3.469,0,0,0,.64-.386c.046-.034.09-.07.134-.106a.348.348,0,0,0,.108-.238.331.331,0,0,0-.086-.236.346.346,0,0,0-.238-.11.367.367,0,0,0-.236.088Z" transform="translate(-467.121 -132.711)" fill="#2e2014"/>
              </g>
              <g id="Group_5895" data-name="Group 5895" transform="translate(6.943)">
                <path id="Path_9661" data-name="Path 9661" d="M467.51,130.792a4.848,4.848,0,0,1,1.081-.222l-.088.008a6.02,6.02,0,0,1,1.541.052l-.088-.014a5,5,0,0,1,1.255.382l-.082-.038a13.984,13.984,0,0,1,1.277.687,10.212,10.212,0,0,1,.995.687c.182.14.36.286.536.434l-.068-.056c.134.112.268.228.4.342a.249.249,0,0,0,.106.076.268.268,0,0,0,.13.034.348.348,0,0,0,.238-.088.335.335,0,0,0,.108-.236.316.316,0,0,0-.088-.238c-.374-.328-.755-.653-1.155-.951a11.019,11.019,0,0,0-1.173-.765c-.244-.138-.492-.268-.745-.392a5.677,5.677,0,0,0-.9-.37,5.877,5.877,0,0,0-1.76-.244,5.568,5.568,0,0,0-1.529.214c-.048.014-.094.028-.142.044a.366.366,0,0,0-.206.146.334.334,0,0,0,.1.464.333.333,0,0,0,.256.044Z" transform="translate(-467.099 -129.879)" fill="#2e2014"/>
              </g>
              <g id="Group_5896" data-name="Group 5896" transform="translate(30.39 7.584)">
                <path id="Path_9662" data-name="Path 9662" d="M486.568,135.978a5.245,5.245,0,0,0-1.065-1.041,6.036,6.036,0,0,0-1.547-.849,7.261,7.261,0,0,0-1.8-.356,10.9,10.9,0,0,0-1.423-.062c-.492.01-.983.058-1.471.11l-.188.022a.327.327,0,0,0-.206.146.331.331,0,0,0,.1.462l.082.038a.343.343,0,0,0,.174.008c.176-.02.35-.04.524-.056l-.086.008c.4-.04.8-.068,1.2-.07a11.333,11.333,0,0,1,1.277.064c.286.03.574.066.859.112l-.09-.014a4.98,4.98,0,0,1,1.251.4l-.082-.038a5.861,5.861,0,0,1,1.3.833l-.066-.056a4.855,4.855,0,0,1,.763.795.333.333,0,0,0,.236.11.343.343,0,0,0,.236-.088.337.337,0,0,0,.11-.236l-.008-.086a.338.338,0,0,0-.08-.152Z" transform="translate(-478.813 -133.668)" fill="#2e2014"/>
              </g>
              <g id="Group_5897" data-name="Group 5897" transform="translate(29.258 12.328)">
                <path id="Path_9663" data-name="Path 9663" d="M483.853,137.135l-.032.036.056-.066a3.143,3.143,0,0,1-.6.544l.07-.048a3.436,3.436,0,0,1-.755.394l.082-.03a3.321,3.321,0,0,1-.845.2l.086-.008a3.16,3.16,0,0,1-.825-.028l.09.014a3.151,3.151,0,0,1-.8-.248l.08.038a3.425,3.425,0,0,1-.745-.478l.066.056a3.305,3.305,0,0,1-.581-.637l.048.072a3.235,3.235,0,0,1-.37-.7l.03.08-.008-.022a.248.248,0,0,0-.054-.116.254.254,0,0,0-.092-.092.348.348,0,0,0-.256-.044.334.334,0,0,0-.206.146l-.038.08a.352.352,0,0,0-.008.176,3.5,3.5,0,0,0,.33.687,3.657,3.657,0,0,0,.468.6,3.909,3.909,0,0,0,.583.492,3.733,3.733,0,0,0,.673.358,3.074,3.074,0,0,0,.651.192,3.429,3.429,0,0,0,.743.06,3.641,3.641,0,0,0,2.064-.715,3.037,3.037,0,0,0,.494-.44c.054-.06.106-.122.158-.184a.259.259,0,0,0,.046-.126.269.269,0,0,0,0-.132.336.336,0,0,0-.4-.25l-.08.03a.335.335,0,0,0-.126.116Z" transform="translate(-478.247 -136.038)" fill="#2e2014"/>
              </g>
              <path id="Path_9664" data-name="Path 9664" d="M475.488,135.783a16.822,16.822,0,0,0-2.8,4.5.726.726,0,0,0-.068.554.7.7,0,0,0,.4.312,6.671,6.671,0,0,0,2.262.512" transform="translate(-454.661 -123.965)" fill="#ea918b"/>
              <g id="Group_5911" data-name="Group 5911" transform="translate(10.826 9.521)">
                <g id="Group_5898" data-name="Group 5898" transform="translate(3.413 5.138)">
                  <path id="Path_9665" data-name="Path 9665" d="M470.978,137.858a.346.346,0,0,0,.256-.024.232.232,0,0,0,.1-.082.254.254,0,0,0,.066-.114.345.345,0,0,0-.022-.256.349.349,0,0,0-.2-.164.345.345,0,0,0-.256.022.265.265,0,0,0-.1.084.252.252,0,0,0-.066.114.336.336,0,0,0,.024.256.354.354,0,0,0,.2.164Z" transform="translate(-470.744 -137.202)" fill="#ea918b"/>
                </g>
                <g id="Group_5899" data-name="Group 5899" transform="translate(5.31)">
                  <path id="Path_9666" data-name="Path 9666" d="M471.926,135.291a.345.345,0,0,0,.256-.024.23.23,0,0,0,.1-.082.253.253,0,0,0,.066-.114.344.344,0,0,0-.022-.256.348.348,0,0,0-.2-.164.345.345,0,0,0-.256.022.264.264,0,0,0-.1.084.253.253,0,0,0-.066.114.335.335,0,0,0,.024.256.353.353,0,0,0,.2.164Z" transform="translate(-471.692 -134.635)" fill="#ea918b"/>
                </g>
                <g id="Group_5900" data-name="Group 5900" transform="translate(8.199 1.341)">
                  <path id="Path_9667" data-name="Path 9667" d="M473.369,135.959a.345.345,0,0,0,.256-.022.263.263,0,0,0,.1-.082.258.258,0,0,0,.066-.116.336.336,0,0,0-.024-.256.333.333,0,0,0-.452-.14.259.259,0,0,0-.1.082.251.251,0,0,0-.066.116.331.331,0,0,0,.024.254.339.339,0,0,0,.2.164Z" transform="translate(-473.135 -135.305)" fill="#ea918b"/>
                </g>
                <g id="Group_5901" data-name="Group 5901" transform="translate(1.735 0.869)">
                  <path id="Path_9668" data-name="Path 9668" d="M470.141,135.725a.345.345,0,0,0,.256-.022.265.265,0,0,0,.1-.084.242.242,0,0,0,.066-.114.336.336,0,0,0-.024-.256.354.354,0,0,0-.2-.164.345.345,0,0,0-.256.024.246.246,0,0,0-.1.082.253.253,0,0,0-.066.114.344.344,0,0,0,.022.256.349.349,0,0,0,.2.164Z" transform="translate(-469.906 -135.07)" fill="#ea918b"/>
                </g>
                <g id="Group_5902" data-name="Group 5902" transform="translate(5.699 3.376)">
                  <path id="Path_9669" data-name="Path 9669" d="M472.122,136.976a.34.34,0,0,0,.254-.022.263.263,0,0,0,.1-.082.249.249,0,0,0,.066-.116.345.345,0,0,0-.022-.256.336.336,0,0,0-.454-.14.261.261,0,0,0-.1.082.248.248,0,0,0-.066.116.335.335,0,0,0,.222.418Z" transform="translate(-471.886 -136.322)" fill="#ea918b"/>
                </g>
                <g id="Group_5903" data-name="Group 5903" transform="translate(0 3.965)">
                  <path id="Path_9670" data-name="Path 9670" d="M469.273,137.272a.345.345,0,0,0,.256-.024.243.243,0,0,0,.1-.082.253.253,0,0,0,.066-.114.335.335,0,0,0-.024-.256.338.338,0,0,0-.2-.164.345.345,0,0,0-.256.022.251.251,0,0,0-.1.084.242.242,0,0,0-.066.114.345.345,0,0,0,.022.256.365.365,0,0,0,.2.164Z" transform="translate(-469.039 -136.616)" fill="#ea918b"/>
                </g>
                <g id="Group_5904" data-name="Group 5904" transform="translate(10.569 5.053)">
                  <path id="Path_9671" data-name="Path 9671" d="M474.553,137.815a.345.345,0,0,0,.256-.022.266.266,0,0,0,.1-.084.254.254,0,0,0,.066-.114.336.336,0,0,0-.024-.256.354.354,0,0,0-.2-.164.345.345,0,0,0-.256.024.231.231,0,0,0-.1.082.253.253,0,0,0-.066.114.345.345,0,0,0,.022.256.349.349,0,0,0,.2.164Z" transform="translate(-474.319 -137.16)" fill="#ea918b"/>
                </g>
                <g id="Group_5905" data-name="Group 5905" transform="translate(12.844 2.346)">
                  <path id="Path_9672" data-name="Path 9672" d="M475.691,136.463a.34.34,0,0,0,.254-.024.237.237,0,0,0,.1-.082.254.254,0,0,0,.066-.114.344.344,0,0,0-.024-.256.338.338,0,0,0-.452-.142.256.256,0,0,0-.1.084.267.267,0,0,0-.064.114.335.335,0,0,0,.022.256.351.351,0,0,0,.2.164Z" transform="translate(-475.455 -135.807)" fill="#ea918b"/>
                </g>
                <g id="Group_5906" data-name="Group 5906" transform="translate(15.229 5.659)">
                  <path id="Path_9673" data-name="Path 9673" d="M476.881,138.118a.345.345,0,0,0,.256-.024.242.242,0,0,0,.1-.082.254.254,0,0,0,.066-.114.337.337,0,0,0-.22-.42.346.346,0,0,0-.256.024.231.231,0,0,0-.1.082.254.254,0,0,0-.066.114.345.345,0,0,0,.022.256.365.365,0,0,0,.2.164Z" transform="translate(-476.647 -137.463)" fill="#ea918b"/>
                </g>
                <g id="Group_5907" data-name="Group 5907" transform="translate(17.897 4.526)">
                  <path id="Path_9674" data-name="Path 9674" d="M478.216,137.552a.34.34,0,0,0,.254-.024.231.231,0,0,0,.1-.082.252.252,0,0,0,.066-.114.337.337,0,0,0-.476-.4.264.264,0,0,0-.1.084.254.254,0,0,0-.066.114.345.345,0,0,0,.024.256.351.351,0,0,0,.2.164Z" transform="translate(-477.98 -136.896)" fill="#ea918b"/>
                </g>
                <g id="Group_5908" data-name="Group 5908" transform="translate(17.669 7.54)">
                  <path id="Path_9675" data-name="Path 9675" d="M478.1,139.058a.34.34,0,0,0,.254-.024.236.236,0,0,0,.1-.082.267.267,0,0,0,.064-.114.333.333,0,0,0-.22-.42.339.339,0,0,0-.254.022.256.256,0,0,0-.1.084.252.252,0,0,0-.066.114.345.345,0,0,0,.024.256.351.351,0,0,0,.2.164Z" transform="translate(-477.866 -138.402)" fill="#ea918b"/>
                </g>
                <g id="Group_5909" data-name="Group 5909" transform="translate(12.344 7.314)">
                  <path id="Path_9676" data-name="Path 9676" d="M475.44,138.945a.345.345,0,0,0,.256-.024.242.242,0,0,0,.1-.082.25.25,0,0,0,.066-.114.334.334,0,0,0-.024-.256.338.338,0,0,0-.2-.164.345.345,0,0,0-.256.022.388.388,0,0,0-.164.2.344.344,0,0,0,.022.256.365.365,0,0,0,.2.164Z" transform="translate(-475.206 -138.289)" fill="#ea918b"/>
                </g>
                <g id="Group_5910" data-name="Group 5910" transform="translate(14.677 9.12)">
                  <path id="Path_9677" data-name="Path 9677" d="M476.607,139.847a.34.34,0,0,0,.254-.024.23.23,0,0,0,.1-.082.252.252,0,0,0,.066-.114.343.343,0,0,0-.022-.256.336.336,0,0,0-.454-.14.242.242,0,0,0-.1.082.253.253,0,0,0-.066.114.345.345,0,0,0,.024.256.351.351,0,0,0,.2.164Z" transform="translate(-476.371 -139.192)" fill="#ea918b"/>
                </g>
              </g>
              <path id="Path_9678" data-name="Path 9678" d="M487.542,140.817a9.452,9.452,0,0,0-4.8-.446,6.2,6.2,0,0,0-4.872,4.081,9.006,9.006,0,0,0,.364,4.928c.006.022.022.044.028.066C480.648,148.309,486.9,145.484,487.542,140.817Z" transform="translate(-449.585 -119.509)" fill="#ea5f5c" opacity="0.47"/>
              <path id="Path_9679" data-name="Path 9679" d="M468.161,136.191a7.341,7.341,0,0,0-4.524-1.4,15.85,15.85,0,0,0,3.815,11.073,7.35,7.35,0,0,0,2.738-3.189A5.846,5.846,0,0,0,468.161,136.191Z" transform="translate(-463.63 -124.96)" fill="#ea5f5c" opacity="0.47"/>
            </g>
            <g id="Group_5913" data-name="Group 5913" transform="translate(0 94.848)">
              <path id="Path_9680" data-name="Path 9680" d="M507.608,198.753c.533-4.107.577-8.233-.961-12.02-1.87-4.6-5.881-8.071-10.323-10.291s-9.34-3.341-14.184-4.442c-7.258-1.647-22.623-8.8-30.053-9.234l-1.539,44.088C470.636,207.682,493.176,202.722,507.608,198.753Z" transform="translate(-445.977 -162.767)" fill="#fff"/>
              <path id="Path_9681" data-name="Path 9681" d="M448.265,177.845,452.5,201.3c2.422,3.207,9.1,16.239,11.674,19.324s29.272-.562,33.177-1.507c5.439-1.315,7.432-7.866,8.477-13.363q1.576-8.3,3.155-16.606c.342-1.805.671-3.649.909-5.5C495.464,187.619,468.352,178.67,448.265,177.845Z" transform="translate(-448.265 -147.664)" fill="#f0f0f2"/>
            </g>
            <path id="Path_9682" data-name="Path 9682" d="M497.864,157.994c8.793,4.067,13.992,5.641,14.544,11.8.272,3.033-3.883,9.636-6,14.452-5.995,13.635-13.817,25.357-20.739,35.131-3.427,4.84-8.721,11.774-14.956,12.827-7.2,1.213-9.24-5.531-6.912-7.528,4.546-3.9,1.689-1.948,4.924-6.856,8.129-12.342,16.748-25.229,21.75-38.448,1.633-4.316,2.014-14.474,7.955-15.355" transform="translate(-433.621 -72.699)" fill="#f9a9a0"/>
            <g id="Group_5915" data-name="Group 5915" transform="translate(30.065)">
              <path id="Path_9683" data-name="Path 9683" d="M492.974,132.506s-2.868,7.464-27.683,12.893c0,0-7.892-17.2,7.636-24.911s26.95-5.406,30.6-1.467" transform="translate(-463.285 -115.382)" fill="#022035"/>
              <g id="Group_5914" data-name="Group 5914" transform="translate(25.625 2.658)">
                <path id="Path_9684" data-name="Path 9684" d="M597.484,218.1A12.984,12.984,0,0,1,597,224.55c-2.134,6.019-9.372,9.186-15.659,8.063s-11.511-5.687-15.014-11.029-5.555-11.471-7.8-17.45-4.794-12-9.057-16.752c-4.888-5.449-11.782-8.867-18.952-10.351-4.318-.895-8.755-1.127-13.067-2.058S508.813,172.3,505.894,169c-5.483-6.205-4.658-16.113-9.816-22.591a15.039,15.039,0,0,0-7.995-5.126,10.053,10.053,0,0,1-.661,1.375c-1.619,2.676-6.6,4.151-8.655,7.026-1.175,1.643-2.23,3.5-2.23,9.19,0,7.868,11.185,14.748,14.076,22.064s3.217,12.312,8.551,15.483c1.888,1.123,4.111,1.637,5.879,2.94,5.042,3.719,5.6,10.913,8.447,16.5a20.851,20.851,0,0,0,10.17,9.574c9.024,3.927,20.1,1.171,28.72,5.929,7.73,4.268,11.564,13.583,19.17,18.067,8.831,5.206,21.43,1.785,26.988-6.828C603.267,235.271,602.594,225.066,597.484,218.1Z" transform="translate(-475.635 -92.1)" fill="#011521"/>
                <path id="Path_9685" data-name="Path 9685" d="M494.705,171.436c5.158,6.477,4.366,17.1,9.848,23.307a23.051,23.051,0,0,0,11.788,6.864c4.312.931,10.838.9,15.155,1.79,7.17,1.483,10.994,3.5,15.882,8.953,4.263,4.754,7.007,10.178,9.251,16.157s4.408,13.271,7.909,18.611,11.022,11.86,17.309,12.981,15.026-3.978,17.16-10c.749-2.106-.732-5.222-1.072-7.389a19.328,19.328,0,0,0-3.138-3.4c-4.956-4.169-11.71-6.009-16.057-10.809-5.615-6.2-5.693-15.441-8.163-23.433a38.657,38.657,0,0,0-16.161-21.079c-7.392-4.658-16.361-6.784-22.919-12.558-10.857-9.56-11.9-25.8-17.689-39.056a27.814,27.814,0,0,0-9.836-11.924,22.241,22.241,0,0,0-12.787-3.745,56.991,56.991,0,0,0-15.1,2.122l4.3,4.039c-3.905,3.709-3.781,10.114-1.707,15.084s5.689,9.134,8.2,13.9c2.264,4.308,2.952,11.338,1.114,15.728C491.111,168.382,492.7,168.916,494.705,171.436Z" transform="translate(-476.087 -116.71)" fill="#011521"/>
              </g>
            </g>
            <path id="Path_9686" data-name="Path 9686" d="M483.322,138.984c1.335-1.023,3.071-2.092,4.574-1.345a2.79,2.79,0,0,1,1.041,3.627,4.379,4.379,0,0,1-3.347,2.226,10.879,10.879,0,0,1-4.139-.38" transform="translate(-415.024 -93.338)" fill="#f9a9a0"/>
            <g id="Group_5916" data-name="Group 5916" transform="translate(4.982 159.653)">
              <path id="Path_9687" data-name="Path 9687" d="M451.942,239.027c1.385,12.468,2.924,24.512,3.595,35.241,2.934,46.929,6.361,95.227,28.422,137.586,18.769-14.092,43.458-19.542,67.526-21.722s48.45-1.509,72.29-5.266,47.9-12.668,63.008-30.119c.048-.054.088-.114.134-.168C551.286,339.536,484.639,287.887,451.942,239.027Z" transform="translate(-449.564 -151.186)" fill="#f0f0f2"/>
              <path id="Path_9688" data-name="Path 9688" d="M738.307,321.454a288.287,288.287,0,0,1-85.571-41.392c-24.154-17.188-45.139-37.945-69.409-55s-53.194-30.583-83.673-29.9L458.23,197.93c-9.81,22.188-8.185,57.247-5.1,85.054,32.7,48.86,99.344,100.509,234.974,115.552,10.2-11.862,15.483-26.584,21.808-40.566C716.269,343.922,724.464,329.709,738.307,321.454Z" transform="translate(-450.754 -195.143)" fill="#fff"/>
            </g>
            <path id="Path_9689" data-name="Path 9689" d="M475.4,173.026s8.585-7.981,21.886-2.936c0,0,3.367,7.921-5.719,11.916l-17.787-3.831" transform="translate(-422.706 -62.258)" fill="#fff"/>
          </g>
        </g>
        <g id="Group_5927" data-name="Group 5927">
          <g id="Group_5920" data-name="Group 5920" transform="translate(5.954 230.551)">
            <g id="Group_5919" data-name="Group 5919" transform="translate(1.177 243.211)">
              <path id="Path_9690" data-name="Path 9690" d="M418.987,348.657a15.1,15.1,0,0,0,7.416,16.329c2.4,1.329,5.156,2.048,7.708,3.133a53.144,53.144,0,0,1,9.158,5.41c.891.611,1.885,1.449,1.649,2.364-.32,1.227-2.348,1.195-3.813.895l-37-7.564a4.268,4.268,0,0,1-1.914-.727,2.57,2.57,0,0,1-.8-1.605c-.677-3.951,4.165-11.2,4.692-15.109,1.007-7.462-.11-9.316-.715-12.556" transform="translate(-399.569 -339.227)" fill="#f9a9a0"/>
              <path id="Path_9691" data-name="Path 9691" d="M405.446,347.786c2.62,3.361,7.064,6.233,11.177,4.634a17.877,17.877,0,0,0,4.1-2.762c.38-.6,3.513,2.026,4.658,3.019,5.809,5.044,14.1,6.5,20.3,11.2,1.281.971,2.454,2.514,1.659,3.705-.809,1.213-2.936,1.063-4.62.767L413.1,363.113a64.813,64.813,0,0,1-10.188-2.372,4.542,4.542,0,0,1-1.725-.919,2.845,2.845,0,0,1-.739-1.962c-.128-2.524,2.762-8.5,4.994-10.074" transform="translate(-400.448 -330.654)" fill="#2e2014"/>
            </g>
            <path id="Path_9692" data-name="Path 9692" d="M427.965,217.722l.514,54.095c.218,22.965.424,46.06-3.939,68.727-1.906,9.9-4.674,19.668-7.224,29.466a694.188,694.188,0,0,0-17.342,91.073,5.158,5.158,0,0,0,.438,3.585,6.452,6.452,0,0,0,2.8,1.968A50.437,50.437,0,0,0,424,470.961a5.092,5.092,0,0,0,4.948-4.159c6.623-34.869,13.467-69.812,25.5-103.622,3.931-11.053,8.419-21.986,11.349-33.26,3.129-12.032,4.456-24.336,5.777-36.6l5.695-52.884" transform="translate(-399.86 -217.722)" fill="#011521"/>
          </g>
          <g id="Group_5922" data-name="Group 5922" transform="translate(42.261 214.986)">
            <g id="Group_5921" data-name="Group 5921" transform="translate(46.578 270.816)">
              <path id="Path_9693" data-name="Path 9693" d="M456.866,352.176a15.1,15.1,0,0,0,10.126,14.8c2.594.893,5.432,1.125,8.135,1.751a53.232,53.232,0,0,1,9.956,3.747c.981.448,2.108,1.1,2.032,2.044-.1,1.263-2.106,1.583-3.6,1.541l-37.755-1.055a4.277,4.277,0,0,1-2.012-.384,2.579,2.579,0,0,1-1.061-1.443c-1.351-3.777,2.168-11.75,2.01-15.693-.3-7.524-1.717-9.156-2.874-12.244" transform="translate(-440.713 -345.242)" fill="#f9a9a0"/>
              <path id="Path_9694" data-name="Path 9694" d="M444.551,354.2c3.161,2.856,8.033,4.918,11.808,2.632a17.8,17.8,0,0,0,3.557-3.427c.272-.659,3.811,1.387,5.11,2.168,6.593,3.963,15.012,3.965,21.934,7.522,1.431.735,2.852,2.052,2.276,3.363-.587,1.333-2.708,1.555-4.42,1.551l-30.075-.036A65.332,65.332,0,0,1,444.3,367.4a4.555,4.555,0,0,1-1.858-.606,2.865,2.865,0,0,1-1.067-1.805c-.562-2.464,1.251-8.855,3.179-10.787" transform="translate(-441.268 -337.191)" fill="#2e2014"/>
            </g>
            <path id="Path_9695" data-name="Path 9695" d="M418.048,232.453c-.334,5.382,1.081,10.723,2.58,15.961C432.69,290.557,450.8,332.059,452.22,375.4c.358,10.979-.364,21.972.122,32.949.41,9.252,1.681,18.459,2.948,27.655l6.85,49.649a5.067,5.067,0,0,0,1.4,3.385c1.2,1.025,3.1,1.091,4.808,1.091l16.021.014a5.09,5.09,0,0,0,5.044-5.194c-.326-42.209.542-83.847,2.766-126.042,2.554-48.48-4.29-101.76-17.587-148.965" transform="translate(-417.998 -209.946)" fill="#022035"/>
          </g>
          <g id="Group_5924" data-name="Group 5924" transform="translate(48.579)">
            <path id="Path_9696" data-name="Path 9696" d="M449.1,121.619c-4.816,15.815-18.527,26.916-27.463,40.772a1.927,1.927,0,0,0-.438,1.5,1.907,1.907,0,0,0,.957.975c12.2,7.428,24.492,14.9,37.827,19.946-2.814-2.134-3.973-5.831-4.552-9.344a45.751,45.751,0,0,1,6.838-32.239" transform="translate(-421.155 -83.434)" fill="#ea918b"/>
            <path id="Path_9697" data-name="Path 9697" d="M480.974,119.792c2.314,3.1,2.726,7.328,1.98,11.141s-2.532,7.326-4.3,10.779c-3.008,5.895-3.877,11.8-8.073,16.9-2.376,2.882-6.6,5.775-9.974,8.057a22.334,22.334,0,0,1-5.13,2.556,7.607,7.607,0,0,1-6-.042c-6.483-2.856-10.577-9.716-11.944-16.744s-.414-14.29.713-21.362c.817-5.118,1.769-10.353,4.414-14.79a24.779,24.779,0,0,1,12.7-10.226,36.383,36.383,0,0,1,16.3-1.8" transform="translate(-405.425 -101.047)" fill="#f9a9a0"/>
            <g id="Group_5923" data-name="Group 5923" transform="translate(19.114)">
              <path id="Path_9698" data-name="Path 9698" d="M437.926,111.846q-1.348,2.708-2.692,5.414c-4.109,8.267-6.351,18.878-2.66,26.522a25.465,25.465,0,0,0,7.226,7.668,12.347,12.347,0,0,0,10.07,1.767c2.744-.841,4.968-2.836,7.278-4.558a43.669,43.669,0,0,1,15.391-7.314c4.454-1.119,9.136-1.547,13.275-3.555a25.76,25.76,0,0,0,9.746-8.975,24.636,24.636,0,0,0,4.46-11.293,15.918,15.918,0,0,0-.506-5.757C472.989,134.167,448.655,120.381,437.926,111.846Z" transform="translate(-430.704 -93.303)" fill="#011521"/>
              <path id="Path_9699" data-name="Path 9699" d="M486.057,111.343c-8.993-4.276-18.331-8.635-28.265-8.8-5.757-.092-11.812,1.425-15.915,5.517-2.448,2.44-4.037,5.609-5.583,8.717-.713,1.435-1.864,3.673-2.577,5.108,10.729,8.535,35.6,21.789,62.127-.611a13.76,13.76,0,0,0-3.226-5.83A22.648,22.648,0,0,0,486.057,111.343Z" transform="translate(-426.932 -102.542)" fill="#011521"/>
            </g>
          </g>
          <g id="Group_5926" data-name="Group 5926" transform="translate(0 60.599)">
            <path id="Path_9700" data-name="Path 9700" d="M424.732,151.159a210.59,210.59,0,0,0-23.606,39.653c-2.784,6.137-5.286,12.743-3.8,19.372,2.422,10.777,15.082,18.569,27.775,20.655s25.483-.3,37.839-2.672" transform="translate(-396.885 -114.444)" fill="#011521"/>
            <path id="Path_9701" data-name="Path 9701" d="M444.249,137.336c4.33-7.278,19.39,4.181,29.274,7.456,5.857,1.938,10.559,4.021,10.02,9.1-.655,6.149,5.23,6.357,7.066,12.32,1.319,4.294,8.966,13.863,8.677,18.353-3.1,48.194-8.707,90.064-3.8,138.106.178,1.739.208,3.861-1.243,4.808a4.6,4.6,0,0,1-1.852.562,224.85,224.85,0,0,1-73.132-.953c-2.078-23.718-2.434-39.062-7.566-62.3-2.294-10.381-4.36-27.973-4.976-38.594-.472-8.111-.583-19.734.538-27.779,1.671-11.988,2.338-21.72,7.222-32.769s5.494-19.838,29.773-28.313" transform="translate(-387.379 -130.67)" fill="#022035"/>
            <path id="Path_9702" data-name="Path 9702" d="M425.5,139.009l4.686-5.871a.853.853,0,0,1,.945-.274l21.964,7.578a.852.852,0,0,1,.574.827l-.112,4.53a.845.845,0,0,1-.887.831c-3.467-.184-16.666-1.2-26.892-6.311A.865.865,0,0,1,425.5,139.009Z" transform="translate(-368.408 -132.817)" fill="#fff"/>
            <g id="Group_5925" data-name="Group 5925" transform="translate(64.277 18.306)">
              <path id="Path_9703" data-name="Path 9703" d="M472.229,233.484s1.325,26.284-20.969,11.958c-15.967-10.26-26.113-48.948-20.871-73.05,5.418-24.923,14.978-28.357,25.369-27.943" transform="translate(-428.997 -139.503)" fill="#011521" opacity="0.48"/>
              <path id="Path_9704" data-name="Path 9704" d="M478.5,191.8a33.31,33.31,0,0,1,8.057-.146,11.315,11.315,0,0,1,6.986,3.371,12.848,12.848,0,0,1,1.443,2.144c1.365,2.408,2.52,5.21,1.575,7.784a3.045,3.045,0,0,1-1.007,1.451,4.2,4.2,0,0,1-2.46.6,11.049,11.049,0,0,1-2.668-.28,17.2,17.2,0,0,1-2.941-1.1l-8.255-3.671" transform="translate(-379.417 -92.385)" fill="#f9a9a0"/>
              <path id="Path_9705" data-name="Path 9705" d="M453.531,141.962c6.543,2.586,11.445,7.893,14.606,13.747s3.611,17.436,5.2,23.8c2.378,9.532,4.011,13.7,6.387,23.227,1.087,4.356,4.105,9.005,6.519,12.887,4.608,7.408,13.223,11.8,21.416,15.833l13.789,6.78a15.8,15.8,0,0,1,3.835,2.362c3.185,2.946,2.995,7.66,2.59,11.792a1.756,1.756,0,0,1-.474,1.247,2.156,2.156,0,0,1-1.665.232c-8.645-1.169-17.048-3.489-25.415-5.8l-15.587-4.306c-5.228-1.445-10.543-2.926-15.09-5.7-4.848-2.958-8.549-7.214-12.166-11.4-4.009-4.638-8.6-15.375-10.947-20.971-10.765-25.615-12.7-31.644-11.662-45.105a23.289,23.289,0,0,1,5.875-13.809" transform="translate(-423.366 -141.962)" fill="#022035"/>
            </g>
          </g>
        </g>
      </g>
    </g>
  </g>
</svg>
