<svg xmlns="http://www.w3.org/2000/svg" width="80.556" height="26.072" viewBox="0 0 80.556 26.072">
    <defs>
        <style>
            .prefix__cls-1{fill:#ac93c1}.prefix__cls-2{fill:#fdda83}
        </style>
    </defs>
    <g id="prefix___1-plano-logo" data-name="1-plano-logo">
        <g id="prefix__Group_6734" data-name="Group 6734" transform="translate(41.444 6.29)">
            <path id="prefix__Path_11373" d="M430.614 300.986a1.246 1.246 0 0 1-1.288 1.2 1.277 1.277 0 0 1-1.322-1.2v-5.847a1.277 1.277 0 0 1 1.322-1.2 1.246 1.246 0 0 1 1.288 1.2z" class="prefix__cls-1" data-name="Path 11373" transform="translate(-428.003 -287.808)"/>
            <path id="prefix__Path_11374" d="M496.877 300.986a1.219 1.219 0 0 1-1.259 1.2 1.246 1.246 0 0 1-1.288-1.2v-5.847a1.246 1.246 0 0 1 1.288-1.2 1.219 1.219 0 0 1 1.259 1.2z" class="prefix__cls-1" data-name="Path 11374" transform="translate(-483.372 -287.808)"/>
            <path id="prefix__Path_11375" d="M430.651 265.288v-1.7a4.171 4.171 0 1 1 8.34 0v1.7h2.561v-1.714a6.752 6.752 0 1 0-13.5 0v1.714z" class="prefix__cls-1" data-name="Path 11375" transform="translate(-428.041 -256.821)"/>
        </g>
        <g id="prefix__Group_6735" data-name="Group 6735" transform="translate(0 6.29)">
            <path id="prefix__Path_11376" d="M184.506 256.821a7.357 7.357 0 1 0 7.357 7.357 7.357 7.357 0 0 0-7.357-7.357zm0 12.213a4.856 4.856 0 1 1 4.856-4.856 4.856 4.856 0 0 1-4.856 4.856z" class="prefix__cls-1" data-name="Path 11376" transform="translate(-177.149 -256.821)"/>
            <path id="prefix__Path_11377" d="M179.843 307.542a1.279 1.279 0 0 1-1.347 1.2 1.279 1.279 0 0 1-1.346-1.2v-11.026a1.279 1.279 0 0 1 1.346-1.2c.744 0 .81.335.81 1l.536 2.941z" class="prefix__cls-1" data-name="Path 11377" transform="translate(-177.15 -288.958)"/>
        </g>
        <g id="prefix__Group_6736" data-name="Group 6736" transform="translate(24.258 6.289)">
            <path id="prefix__Path_11378" d="M323.979 264.171a7.5 7.5 0 1 1 7.515 7.379 7.181 7.181 0 0 1-7.515-7.379zm12.164.049a4.71 4.71 0 1 0-4.691 4.929 4.583 4.583 0 0 0 4.691-4.929z" class="prefix__cls-1" data-name="Path 11378" transform="translate(-323.979 -256.82)"/>
            <path id="prefix__Path_11379" d="M400.952 301.129a1.289 1.289 0 0 1-1.357 1.208 1.289 1.289 0 0 1-1.357-1.208v-3.17l.22-2.778a1.06 1.06 0 0 1 1.137-1.153 1.289 1.289 0 0 1 1.357 1.208v5.893z" class="prefix__cls-1" data-name="Path 11379" transform="translate(-385.969 -287.881)"/>
        </g>
        <g id="prefix__Group_6737" data-name="Group 6737" transform="translate(16.784 3.258)">
            <path id="prefix__Path_11380" d="M278.739 250.517v9.727c0 1.6.81 3.341 2.858 3.341l-.237-1.6v-14.732a3.337 3.337 0 0 0-2.621 3.264z" class="prefix__cls-1" data-name="Path 11380" transform="translate(-278.739 -245.802)"/>
            <path id="prefix__Path_11381" d="M293.991 330.9a1.181 1.181 0 0 1 1.209 1.213 1.257 1.257 0 0 1-1.209 1.3h-3.524a1.257 1.257 0 0 1-1.209-1.3 1.181 1.181 0 0 1 1.209-1.213z" class="prefix__cls-1" data-name="Path 11381" transform="translate(-287.52 -315.628)"/>
            <path id="prefix__Path_11382" d="M281.457 252.429a1.4 1.4 0 0 1-1.358 1.482 1.475 1.475 0 0 1-1.358-1.569v-12.3a1.475 1.475 0 0 1 1.358-1.569 1.475 1.475 0 0 1 1.358 1.569z" class="prefix__cls-1" data-name="Path 11382" transform="translate(-278.74 -238.473)"/>
            <path id="prefix__Path_11383" d="M295.226 319.115c-.2 0-.39.437-.575.382-.136.057-.284-.386-.441-.386a1.133 1.133 0 0 1-1.133-1.133c0-.141-.446-.274-.4-.4-.092-.253.327-.52.327-.8l-.02 4.768a3.318 3.318 0 0 0 .7.077h2.72v-2.513z" class="prefix__cls-1" data-name="Path 11383" transform="translate(-290.364 -303.845)"/>
            <path id="prefix__Rectangle_4256" d="M0 0H0.238V1.128H0z" class="prefix__cls-1" data-name="Rectangle 4256" transform="translate(2.445 14.397)"/>
        </g>
        <g id="prefix__Group_6740" data-name="Group 6740" transform="translate(57.078)">
            <path id="prefix__Path_11384" d="M530.086 256.856a7.309 7.309 0 1 0 7.43 7.295 7.125 7.125 0 0 0-7.43-7.295zm0 12.2a4.9 4.9 0 1 1 4.668-4.9 4.6 4.6 0 0 1-4.669 4.899z" class="prefix__cls-1" data-name="Path 11384" transform="translate(-522.629 -250.561)"/>
            <g id="prefix__Group_6738" data-name="Group 6738" transform="translate(6.888 6.119)">
                <path id="prefix__Path_11385" d="M598.739 256.725a7.4 7.4 0 0 0-6.132-.479 7.53 7.53 0 0 1 2.312 1.912 4.9 4.9 0 0 1 2.778.567 4.667 4.667 0 0 1 1.929 6.635 4.789 4.789 0 0 1-4.545 2.816 7.5 7.5 0 0 1-2.041 1.874 7.259 7.259 0 0 0 5.7-13.324z" class="prefix__cls-2" data-name="Path 11385" transform="translate(-587.934 -255.791)"/>
                <path id="prefix__Path_11386" d="M567.8 283.177a4.8 4.8 0 0 1-.286-5.313 6.359 6.359 0 0 1 .339-.573 3.685 3.685 0 0 0-2.31-1.215c-.118.188-.232.382-.338.585a7.008 7.008 0 0 0 .528 7.649 3.655 3.655 0 0 0 2.067-1.133z" class="prefix__cls-2" data-name="Path 11386" transform="translate(-564.322 -272.724)"/>
            </g>
            <g id="prefix__Group_6739" data-name="Group 6739" transform="translate(16.564)">
                <path id="prefix__Path_11387" d="M632.034 230.83l-.819 4.477.051.016 3.145-3.253z" class="prefix__cls-2" data-name="Path 11387" transform="translate(-629.84 -228.835)"/>
                <path id="prefix__Path_11388" d="M636.463 239.037c-.141-.075-.23-.019-.325.081-.421.44-.845.877-1.268 1.315l-1.624 1.681.03.037 5.116-2.107c-.683-.356-1.308-.679-1.929-1.007z" class="prefix__cls-2" data-name="Path 11388" transform="translate(-631.534 -235.657)"/>
                <path id="prefix__Path_11389" d="M624.892 224.995a.282.282 0 0 0-.134-.219c-.555-.3-1.118-.59-1.679-.881-.05-.026-.106-.042-.19-.075l1.207 5.3.044-.009c.254-1.373.509-2.743.752-4.116z" class="prefix__cls-2" data-name="Path 11389" transform="translate(-622.89 -222.983)"/>
                <path id="prefix__Path_11390" d="M636.813 225.495l1.945-.806c.134.674.265 1.333.4 2.03z" class="prefix__cls-2" data-name="Path 11390" transform="translate(-634.513 -223.708)"/>
                <path id="prefix__Path_11391" d="M654.333 231.273l.628 2.127-1.936-1.009z" class="prefix__cls-2" data-name="Path 11391" transform="translate(-648.046 -229.204)"/>
                <path id="prefix__Path_11392" d="M625.885 219.326l-.168 1.573-1.921-1z" class="prefix__cls-2" data-name="Path 11392" transform="translate(-623.647 -219.231)"/>
                <path id="prefix__Path_11393" d="M650.194 227.138l-.4-2.007 1.7.889z" class="prefix__cls-2" data-name="Path 11393" transform="translate(-645.35 -224.077)"/>
                <path id="prefix__Path_11394" d="M638.4 219.608l-1.81.749.168-1.6z" class="prefix__cls-2" data-name="Path 11394" transform="translate(-634.325 -218.752)"/>
            </g>
        </g>
    </g>
</svg>
