<svg xmlns="http://www.w3.org/2000/svg" id="prefix__shopping-bag_1_" width="48.332" height="47.527" data-name="shopping-bag (1)" viewBox="0 0 48.332 47.527">
    <defs>
        <style>
            .prefix__cls-1{fill:#ffe100}
        </style>
    </defs>
    <g id="prefix__Group_6150" data-name="Group 6150" transform="translate(.805)">
        <path id="prefix__Path_10085" d="M153.45 26.82a.806.806 0 0 1-.805-.806V13.126a7.25 7.25 0 1 0-14.5 0v12.889a.806.806 0 0 1-1.611 0V13.126a8.861 8.861 0 0 1 17.722 0v12.889a.806.806 0 0 1-.806.806" class="prefix__cls-1" data-name="Path 10085" transform="translate(-124.451 -4.265)"/>
        <path id="prefix__Path_10086" d="M59.584 42.754a.806.806 0 0 1-.806-.806v-3.222a7.25 7.25 0 1 0-14.5 0v3.222a.806.806 0 0 1-1.611 0v-3.222a8.861 8.861 0 1 1 17.722 0v3.222a.806.806 0 0 1-.806.806" class="prefix__cls-1" data-name="Path 10086" transform="translate(-39.445 -27.448)"/>
        <path id="prefix__Path_10087" d="M319.284 267.842a.806.806 0 0 1-.806-.806v-8.861a4.833 4.833 0 0 0-9.666 0v8.861a.805.805 0 1 1-1.611 0v-8.861a6.444 6.444 0 0 1 12.889 0v8.861a.806.806 0 0 1-.806.806" class="prefix__cls-1" data-name="Path 10087" transform="translate(-279.007 -228.37)"/>
        <path id="prefix__Path_10088" d="M17.671 157.865h-6.525a2.615 2.615 0 0 0-2.615 2.615v29.607h6.444v-29.526a2.7 2.7 0 0 1 2.7-2.7" class="prefix__cls-1" data-name="Path 10088" transform="translate(-8.531 -143.365)"/>
    </g>
    <path id="prefix__Path_10089" d="M13.564 157.865h-2.416a2.614 2.614 0 0 0-2.615 2.615v29.607h2.417V160.48a2.614 2.614 0 0 1 2.615-2.615" data-name="Path 10089" transform="translate(-7.727 -143.365)" style="fill:#fff"/>
    <path id="prefix__Path_10090" d="M256.177 360.1H230.4l3.222-14.5h19.333z" class="prefix__cls-1" data-name="Path 10090" transform="translate(-208.65 -313.377)"/>
    <path id="prefix__Path_10091" d="M446.15 345.6h-2.417l3.222 14.5h2.417z" data-name="Path 10091" transform="translate(-401.845 -313.377)" style="fill:#ffa800"/>
    <path id="prefix__Path_10092" d="M104.188 175.587V160.48a2.614 2.614 0 0 0-2.615-2.615H79.5a2.7 2.7 0 0 0-2.7 2.7v29.525h14.5l3.222-14.5z" class="prefix__cls-1" data-name="Path 10092" transform="translate(-69.55 -143.365)"/>
    <g id="prefix__Group_6151" data-name="Group 6151">
        <path id="prefix__Path_10093" d="M1.611 181.553h4.833v-28.72A3.481 3.481 0 0 1 7 150.942H3.42a1.812 1.812 0 0 0-1.809 1.809v28.8zm5.639 1.611H.806a.806.806 0 0 1-.806-.806v-29.607a3.424 3.424 0 0 1 3.42-3.42h6.526a.805.805 0 1 1 0 1.611 1.893 1.893 0 0 0-1.891 1.891v29.525a.806.806 0 0 1-.806.806z" data-name="Path 10093" transform="translate(0 -135.637)"/>
        <path id="prefix__Path_10094" d="M144.916 26.82a.806.806 0 0 1-.806-.806V13.126a7.25 7.25 0 0 0-14.5 0v12.889a.806.806 0 0 1-1.611 0V13.126a8.861 8.861 0 1 1 17.722 0v12.889a.806.806 0 0 1-.806.806" data-name="Path 10094" transform="translate(-115.917 -4.265)"/>
        <path id="prefix__Path_10095" d="M51.05 42.754a.806.806 0 0 1-.806-.806v-3.222a7.25 7.25 0 0 0-14.5 0v3.222a.806.806 0 0 1-1.611 0v-3.222a8.861 8.861 0 1 1 17.722 0v3.222a.806.806 0 0 1-.806.806" data-name="Path 10095" transform="translate(-30.912 -27.448)"/>
        <path id="prefix__Path_10096" d="M223.675 351.565h23.769l-2.865-12.889h-18.04zm24.773 1.611H222.67a.806.806 0 0 1-.786-.98l3.222-14.5a.806.806 0 0 1 .786-.631h19.333a.805.805 0 0 1 .786.631l3.222 14.5a.805.805 0 0 1-.786.98z" data-name="Path 10096" transform="translate(-200.921 -305.649)"/>
        <path id="prefix__Path_10097" d="M310.751 267.842a.806.806 0 0 1-.806-.806v-8.861a4.833 4.833 0 1 0-9.666 0v8.861a.806.806 0 1 1-1.611 0v-8.861a6.444 6.444 0 0 1 12.889 0v8.861a.806.806 0 0 1-.806.806" data-name="Path 10097" transform="translate(-270.474 -228.37)"/>
        <path id="prefix__Path_10098" d="M69.878 181.554h13.048l3.082-13.869a.805.805 0 0 1 .786-.631h8.861v-14.3a1.812 1.812 0 0 0-1.809-1.809H71.769a1.893 1.893 0 0 0-1.891 1.891zm13.694 1.611h-14.5a.806.806 0 0 1-.806-.805v-29.526a3.506 3.506 0 0 1 3.5-3.5h22.08a3.424 3.424 0 0 1 3.42 3.42v15.107a.806.806 0 0 1-.806.806h-9.02l-3.082 13.869a.805.805 0 0 1-.786.631z" data-name="Path 10098" transform="translate(-61.823 -135.638)"/>
    </g>
</svg>
