<svg xmlns="http://www.w3.org/2000/svg" width="38.357" height="38.357" viewBox="0 0 38.357 38.357">
    <defs>
        <style>
            .prefix__cls-4{fill:#fff}.prefix__cls-6{fill:#ffe4c0}.prefix__cls-7{fill:#231f20}
        </style>
    </defs>
    <g id="prefix__Thinking_Face" data-name="Thinking Face" transform="translate(.005 .002)">
        <g id="prefix__Filled" transform="translate(.594 .598)">
            <path id="prefix__Path_11564" d="M8 23.582c0 9.6 9.517 21.575 19.778 21.575s17.38-8.98 17.38-18.579S38.038 8 27.778 8 8 13.319 8 23.582z" data-name="Path 11564" transform="translate(-8 -8)" style="fill:#fdda83"/>
            <path id="prefix__Path_11565" d="M145.011 143.852a24.274 24.274 0 0 1-27.03 22.018c3.329 2.987 7.372 4.962 11.538 4.962 10.261 0 17.38-8.98 17.38-18.579a19.718 19.718 0 0 0-1.888-8.401z" data-name="Path 11565" transform="translate(-109.742 -133.675)" style="fill:#ffcd51"/>
            <path id="prefix__Path_11566" d="M15.087 268.777a1.2 1.2 0 0 0 1.027 1.817h10.25a1.5 1.5 0 0 1 .037 3h-4.246v2.021a6.37 6.37 0 0 1-6.37 6.37A7.785 7.785 0 0 1 8 274.2a9.222 9.222 0 0 1 2.367-6.169l3.087-3.43A1.8 1.8 0 0 1 16.4 266.6z" data-name="Path 11566" transform="translate(-8 -244.823)" style="fill:#f5f5f5"/>
            <circle id="prefix__Ellipse_1257" cx="1.5" cy="1.5" r="1.5" class="prefix__cls-4" data-name="Ellipse 1257" transform="translate(23.4 9.401)"/>
            <circle id="prefix__Ellipse_1258" cx="1" cy="1" r="1" class="prefix__cls-4" data-name="Ellipse 1258" transform="translate(11.4 8.401)"/>
            <path id="prefix__Path_11567" d="M38.282 422.238A10.789 10.789 0 0 1 25.44 424.9a7.778 7.778 0 0 0 6.479 3.467 6.369 6.369 0 0 0 6.364-6.125z" data-name="Path 11567" transform="translate(-24.133 -391.205)" style="fill:#e5e5e5"/>
            <g id="prefix__Group_6948" data-name="Group 6948" transform="translate(5.367 10.339)">
                <circle id="prefix__Ellipse_1259" cx="2" cy="2" r="2" class="prefix__cls-6" data-name="Ellipse 1259" transform="translate(.033 .061)"/>
                <circle id="prefix__Ellipse_1260" cx="2" cy="2" r="2" class="prefix__cls-6" data-name="Ellipse 1260" transform="translate(23.033 .061)"/>
            </g>
        </g>
        <g id="prefix__Outline" transform="translate(-.005 -.002)">
            <path id="prefix__Path_11568" d="M312 125.8a1.8 1.8 0 1 0 1.8-1.8 1.8 1.8 0 0 0-1.8 1.8zm2.4 0a.6.6 0 1 1-.6-.6.6.6 0 0 1 .6.6z" class="prefix__cls-7" data-name="Path 11568" transform="translate(-288.626 -114.71)"/>
            <path id="prefix__Path_11569" d="M152 109.8a1.8 1.8 0 1 0 1.8-1.8 1.8 1.8 0 0 0-1.8 1.8zm2.4 0a.6.6 0 1 1-.6-.6.6.6 0 0 1 .6.6z" class="prefix__cls-7" data-name="Path 11569" transform="translate(-140.613 -99.909)"/>
            <path id="prefix__Path_11570" d="M15.354 268.209v-1.421H19a1.967 1.967 0 0 0 1.444-.66 2.181 2.181 0 0 0 .571-1.457v-.068a2.085 2.085 0 0 0-.625-1.409 2.019 2.019 0 0 0-1.426-.6H8.713a.582.582 0 0 1-.43-.181.616.616 0 0 1-.171-.42.59.59 0 0 1 .085-.3l1.324-2.2.011-.02A2.4 2.4 0 0 0 7.391 256a2.4 2.4 0 0 0-1.781.793l-3.087 3.43A9.82 9.82 0 0 0 0 266.794a8.379 8.379 0 0 0 8.384 8.384 6.963 6.963 0 0 0 6.969-6.969zm-1.2-2.62h-1.523a.6.6 0 1 0 0 1.2h1.524V268a.6.6 0 0 0-.109-.01h-2.123a.6.6 0 1 0 0 1.2h2.148a5.705 5.705 0 0 1-.653 1.847.6.6 0 0 0-.234-.048h-2.83a.6.6 0 0 0 0 1.2h2.214l-.1.108a5.738 5.738 0 0 1-4.081 1.69 7.186 7.186 0 0 1-7.187-7.193 8.608 8.608 0 0 1 2.214-5.769l3.086-3.43a1.2 1.2 0 0 1 1.971 1.319l-1.3 2.152a1.784 1.784 0 0 0-.258.923 1.8 1.8 0 0 0 .5 1.249 1.783 1.783 0 0 0 1.291.551h10.261a.83.83 0 0 1 .581.253.891.891 0 0 1 .27.6v.029a.994.994 0 0 1-.258.65.766.766 0 0 1-.557.268h-4.846z" class="prefix__cls-7" data-name="Path 11570" transform="translate(0 -236.822)"/>
            <path id="prefix__Path_11571" d="M70.322 62.129A.6.6 0 0 0 70.7 62a.6.6 0 1 0-.378.134z" class="prefix__cls-7" data-name="Path 11571" transform="translate(-64.499 -56.365)"/>
            <path id="prefix__Path_11572" d="M1.555 99.3a.59.59 0 0 0 .187-.03.6.6 0 0 0 .382-.757 17.38 17.38 0 0 1-.93-5.413 13.072 13.072 0 0 1 3.334-8.969.6.6 0 0 0-.892-.8 14.028 14.028 0 0 0-2.673 4.354A15.022 15.022 0 0 0-.005 93.1a18.576 18.576 0 0 0 .991 5.79.6.6 0 0 0 .569.412z" class="prefix__cls-7" data-name="Path 11572" transform="translate(.005 -76.921)"/>
            <path id="prefix__Path_11573" d="M126.757 15.514a20.5 20.5 0 0 0-.975-3.5 20.165 20.165 0 0 0-1.568-3.241A19.358 19.358 0 0 0 122.1 5.89a18.167 18.167 0 0 0-2.614-2.421 17.284 17.284 0 0 0-3.07-1.859A17.015 17.015 0 0 0 109.12 0h-.007a28.291 28.291 0 0 0-6.854.82 22.1 22.1 0 0 0-6.047 2.458.6.6 0 1 0 .618 1.022 24.1 24.1 0 0 1 12.276-3.1h.007A16.03 16.03 0 0 1 121.2 6.686a18.976 18.976 0 0 1 0 24.981 16.031 16.031 0 0 1-12.091 5.489 13.972 13.972 0 0 1-4.89-.921.59.59 0 0 0-.21-.038.6.6 0 0 0-.21 1.161l.016.005a15.142 15.142 0 0 0 5.293.991h.007a17.015 17.015 0 0 0 7.294-1.611 17.285 17.285 0 0 0 3.07-1.859 18.167 18.167 0 0 0 2.614-2.421 19.351 19.351 0 0 0 2.115-2.881 20.2 20.2 0 0 0 1.568-3.242 20.5 20.5 0 0 0 .975-3.5 20.152 20.152 0 0 0 0-7.325z" class="prefix__cls-7" data-name="Path 11573" transform="translate(-88.735 .002)"/>
            <path id="prefix__Path_11574" d="M128.172 65.038a4.347 4.347 0 0 0-1.773-.8 10.209 10.209 0 0 0-4.412 0 4.341 4.341 0 0 0-1.773.8.6.6 0 1 0 .767.921 3.278 3.278 0 0 1 1.283-.552 8.606 8.606 0 0 1 1.927-.208 8.6 8.6 0 0 1 1.926.208 3.277 3.277 0 0 1 1.284.552.6.6 0 1 0 .767-.921z" class="prefix__cls-7" data-name="Path 11574" transform="translate(-111.007 -59.205)"/>
            <path id="prefix__Path_11575" d="M288.175 81.058a.6.6 0 1 0-.767-.921 3.946 3.946 0 0 1-1.48.569 22.813 22.813 0 0 1-3.467.429c-.44.025-.889.044-1.335.055l-.39.007h-.136a.6.6 0 1 0 0 1.2h.005c.154 0 1.552-.009 3.107-.152a19.631 19.631 0 0 0 2.482-.369 4.948 4.948 0 0 0 1.981-.818z" class="prefix__cls-7" data-name="Path 11575" transform="translate(-259.023 -74.004)"/>
            <path id="prefix__Path_11576" d="M208 240.6a.6.6 0 0 0 .6.6h3.6a.6.6 0 1 0 0-1.2h-3.6a.6.6 0 0 0-.6.6z" class="prefix__cls-7" data-name="Path 11576" transform="translate(-192.417 -222.02)"/>
        </g>
    </g>
</svg>
