<svg xmlns="http://www.w3.org/2000/svg" width="37.517" height="38.357" viewBox="0 0 37.517 38.357">
    <defs>
        <style>
            .prefix__cls-2{fill:#eae9e8}.prefix__cls-3{fill:#ffcd51}
        </style>
    </defs>
    <g id="prefix__waving-hand" transform="translate(-5.607)">
        <path id="prefix__Path_11547" d="M122.759 52.561l-1.168-1.571c.011-.1 1.205-3.3-.185-6.072a5.018 5.018 0 0 1-.479-1.394c-.579-3.383 1.135-7.962 1.168-8.065.6-1.889.835-2.642-.609-3.337-1.571-.756-2.967.117-3.783 1.6a20.282 20.282 0 0 0-2.127 7.2L105.45 27.3a2.341 2.341 0 0 0-3.083-.634 2.311 2.311 0 0 0-.654 3.353l-1.181-1.588a2.344 2.344 0 0 0-3.214-.553 2.311 2.311 0 0 0-.525 3.268L98 32.777a2.311 2.311 0 0 0-3.366-.369 2.341 2.341 0 0 0-.314 3.164l2.239 3.011a2.311 2.311 0 0 0-3.4-.34 2.341 2.341 0 0 0-.281 3.135L103.9 56.19a8.569 8.569 0 0 0 4.45 3.114 4.631 4.631 0 0 1 2.468 1.959l.078.1a1.966 1.966 0 0 0 2.75.4l8.715-6.48a1.951 1.951 0 0 0 .398-2.722z" data-name="Path 11547" transform="translate(-80.301 -24.364)" style="fill:#fdda83"/>
        <g id="prefix__Group_6946" data-name="Group 6946" transform="translate(5.888)">
            <path id="prefix__Path_11548" d="M341.247 6.283A17 17 0 0 0 337.3.979a.562.562 0 1 1 .754-.833 18.119 18.119 0 0 1 4.208 5.654.562.562 0 0 1-1.015.482z" class="prefix__cls-2" data-name="Path 11548" transform="translate(-312.564)"/>
            <path id="prefix__Path_11549" d="M316.713 41.483a13.786 13.786 0 0 0-2.542-3.419.562.562 0 0 1 .787-.8 14.912 14.912 0 0 1 2.75 3.7.562.562 0 1 1-.995.523z" class="prefix__cls-2" data-name="Path 11549" transform="translate(-291.18 -34.321)"/>
            <path id="prefix__Path_11550" d="M13.617 250.153a18.119 18.119 0 0 1-4.205-5.653.562.562 0 1 1 1.015-.482 16.994 16.994 0 0 0 3.944 5.3.562.562 0 1 1-.754.833z" class="prefix__cls-2" data-name="Path 11550" transform="translate(-9.357 -225.437)"/>
            <path id="prefix__Path_11551" d="M54.358 236.762a14.914 14.914 0 0 1-2.75-3.7.562.562 0 0 1 .995-.523 13.785 13.785 0 0 0 2.542 3.42.562.562 0 1 1-.787.8z" class="prefix__cls-2" data-name="Path 11551" transform="translate(-48.383 -214.841)"/>
        </g>
        <g id="prefix__Group_6947" data-name="Group 6947" transform="translate(12.105 1.973)">
            <path id="prefix__Path_11552" d="M145.468 45.25l7.363 9.9a1.073 1.073 0 0 0 1.561.174 1.078 1.078 0 0 0 .162-1.462l-6-8.076-.007-.01-.008-.011-.009-.012-.006-.008-1.162-1.563a2.311 2.311 0 0 1-.01-2.744 2.3 2.3 0 0 0-1.884 3.812z" class="prefix__cls-3" data-name="Path 11552" transform="translate(-140.981 -40.306)"/>
            <path id="prefix__Path_11553" d="M118.693 112.469a1.113 1.113 0 0 0 1.66.143 1.028 1.028 0 0 0 .117-1.358l-6.391-8.6a2.36 2.36 0 0 1-.029-2.793 2.317 2.317 0 0 0-1.96 3.723z" class="prefix__cls-3" data-name="Path 11553" transform="translate(-110.171 -94.353)"/>
            <path id="prefix__Path_11554" d="M112.828 200.153l-.078-.1a4.631 4.631 0 0 0-2.468-1.959 8.569 8.569 0 0 1-4.45-3.114L94.82 180.164a2.36 2.36 0 0 1-.03-2.793 2.316 2.316 0 0 0-1.959 3.723l11.012 14.811a8.569 8.569 0 0 0 4.45 3.114 4.631 4.631 0 0 1 2.468 1.959l.078.1a1.966 1.966 0 0 0 2.75.4l.732-.544a1.962 1.962 0 0 1-1.493-.781z" class="prefix__cls-3" data-name="Path 11554" transform="translate(-92.353 -166.054)"/>
            <path id="prefix__Path_11555" d="M212.937 29.094a2.311 2.311 0 0 1-.007-2.747 2.252 2.252 0 0 0-1.2.251 2.34 2.34 0 0 0-.525.376 2.311 2.311 0 0 0-.334 2.946l.074.1 6.65 8.944a1.083 1.083 0 0 0 1.617.137 1.181 1.181 0 0 0 .126-1.568zm-.638-.858l-.035-.047z" class="prefix__cls-3" data-name="Path 11555" transform="translate(-201.641 -26.342)"/>
            <path id="prefix__Path_11556" d="M403.76 101.749a18.792 18.792 0 0 0-1.315 3.23 19.764 19.764 0 0 0-.811 3.97 1.1 1.1 0 0 0 1.972-.6l.017-.327a20.279 20.279 0 0 1 2.127-7.2 4.6 4.6 0 0 1 .68-.945 3.149 3.149 0 0 0-2.67 1.872z" class="prefix__cls-3" data-name="Path 11556" transform="translate(-378.463 -94.365)"/>
        </g>
        <path id="prefix__Path_11557" d="M337.5 6.284a.562.562 0 0 0 1.015-.482 18.119 18.119 0 0 0-4.21-5.656.562.562 0 1 0-.754.834 16.994 16.994 0 0 1 3.949 5.304z" data-name="Path 11557" transform="translate(-303.205 -.001)"/>
        <path id="prefix__Path_11558" d="M310.412 37.269a.562.562 0 0 0 .007.795 13.784 13.784 0 0 1 2.542 3.419.562.562 0 1 0 .995-.523 14.913 14.913 0 0 0-2.75-3.7.562.562 0 0 0-.794.009z" data-name="Path 11558" transform="translate(-281.822 -34.321)"/>
        <path id="prefix__Path_11559" d="M6.677 244.013a.562.562 0 1 0-1.015.482 18.119 18.119 0 0 0 4.205 5.656.562.562 0 1 0 .754-.833 16.985 16.985 0 0 1-3.944-5.3z" data-name="Path 11559" transform="translate(0 -225.436)"/>
        <path id="prefix__Path_11560" d="M48.851 232.541a.562.562 0 1 0-.995.523 14.915 14.915 0 0 0 2.75 3.7.562.562 0 1 0 .787-.8 13.788 13.788 0 0 1-2.542-3.423z" data-name="Path 11560" transform="translate(-39.025 -214.842)"/>
        <path id="prefix__Path_11561" d="M287.031 74.311a.562.562 0 0 0-.116.786l7.76 10.436a.562.562 0 0 0 1.01-.282 19.748 19.748 0 0 1 2.06-6.982c.289-.525 1.362-2.174 3.047-1.363 1.064.512.87.809.309 2.683-.412 1.157-1.714 5.176-1.178 8.307.257 1.5.857 1.59 1.091 3.548a7.871 7.871 0 0 1-.084 2.385 4.7 4.7 0 0 1-1.018 1.949.562.562 0 0 0 .864.719c.107-.128.2-.256.295-.381l.787 1.058a1.391 1.391 0 0 1-.286 1.943l-1.182.879a.562.562 0 0 0 .336 1.013c.317 0 .369-.179 1.517-.99a2.516 2.516 0 0 0 .517-3.516l-1-1.347a9.364 9.364 0 0 0 .372-3.846c-.249-2.08-.895-2.406-1.1-3.6-.5-2.936.852-6.963 1.129-7.741l.021-.06c.592-1.871.983-3.106-.9-4.013-1.685-.811-3.459-.091-4.518 1.834a21 21 0 0 0-2.008 6.026l-6.935-9.327a.562.562 0 0 0-.79-.118z" data-name="Path 11561" transform="translate(-260.131 -68.641)"/>
        <path id="prefix__Path_11562" d="M239.034 403.466a.562.562 0 0 0-.786-.116l-5.425 4.034a1.405 1.405 0 0 1-1.964-.289 5.331 5.331 0 0 0-2.837-2.267c-3.341-.992-4.466-3.5-5.1-4.176a.562.562 0 0 0-.9.671c.593.631 1.929 3.468 5.682 4.583a4.317 4.317 0 0 1 2.255 1.86 2.531 2.531 0 0 0 3.536.52l5.425-4.034a.562.562 0 0 0 .114-.786z" data-name="Path 11562" transform="translate(-200.098 -370.427)"/>
        <path id="prefix__Path_11563" d="M90.11 21.029a2.876 2.876 0 0 0-4.989 1.441 2.848 2.848 0 0 0 .4 1.97 2.881 2.881 0 0 0-2.332 4.624l.879 1.182a2.881 2.881 0 0 0-2.32 4.624l8.5 11.437a.562.562 0 0 0 .9-.671L82.645 34.2a1.753 1.753 0 0 1 1.555-2.822 1.727 1.727 0 0 1 1.228.7l5.113 6.877a.562.562 0 0 0 .9-.671l-7.353-9.889a1.778 1.778 0 0 1 .229-2.4 1.748 1.748 0 0 1 2.548.278L93.8 35.6a.562.562 0 1 0 .9-.67l-8.146-10.963a1.747 1.747 0 0 1 .4-2.474 1.787 1.787 0 0 1 2.44.429l8.562 11.515a.562.562 0 1 0 .9-.67l-7.382-9.927a1.749 1.749 0 0 1 .5-2.538 1.784 1.784 0 0 1 2.339.49l.8 1.076a.562.562 0 0 0 .9-.67l-.8-1.076a2.881 2.881 0 0 0-5.103.907z" data-name="Path 11563" transform="translate(-69.892 -17.519)"/>
    </g>
</svg>
