<svg xmlns="http://www.w3.org/2000/svg" id="prefix__wedding-couple" width="56.212" height="62.258" viewBox="0 0 56.212 62.258">
    <defs>
        <style>
            .prefix__cls-10{fill:#c79369}.prefix__cls-2,.prefix__cls-5{fill:#e7b791}.prefix__cls-10,.prefix__cls-11,.prefix__cls-13,.prefix__cls-2,.prefix__cls-6,.prefix__cls-7{fill-rule:evenodd}.prefix__cls-7{fill:#5e3a1d}.prefix__cls-4,.prefix__cls-6{fill:#f5f0f0}.prefix__cls-11,.prefix__cls-9{fill:#323232}.prefix__cls-13{fill:#1a1a1a}
        </style>
    </defs>
    <g id="prefix__Group_6133" data-name="Group 6133">
        <path id="prefix__Rectangle_2134" d="M0 0H3.804V5.369H0z" data-name="Rectangle 2134" transform="rotate(-162.884 18.486 7.832)" style="fill:#c79369"/>
        <path id="prefix__Path_9984" d="M95.263 65.285l.829-7.125 2.108-4.547a12.041 12.041 0 0 0 3.636 1.12c.71.691.859 3.159.058 4.936L99 66.436z" class="prefix__cls-2" data-name="Path 9984" transform="translate(-67.339 -36.079)"/>
        <ellipse id="prefix__Ellipse_52" cx="5.024" cy="5.075" data-name="Ellipse 52" rx="5.024" ry="5.075" transform="rotate(-90.991 15.99 -5.227)" style="fill:#5e3a1d"/>
        <ellipse id="prefix__Ellipse_53" cx="5.024" cy="5.075" class="prefix__cls-4" data-name="Ellipse 53" rx="5.024" ry="5.075" transform="rotate(-90.991 20.382 -5.455)"/>
        <ellipse id="prefix__Ellipse_54" cx="6.395" cy="6.607" class="prefix__cls-5" data-name="Ellipse 54" rx="6.395" ry="6.607" transform="rotate(-90.991 21.813 -4.03)"/>
        <path id="prefix__Path_9985" d="M48.432 77.2c3.645 7.3-2.353 17.759-13.478 23.934A24.932 24.932 0 0 1 21.2 73.589C32.822 68.406 44.787 69.9 48.432 77.2z" class="prefix__cls-6" data-name="Path 9985" transform="translate(-17.153 -47.454)"/>
        <path id="prefix__Path_9986" d="M96.092 65.71c.445.146 4.616-1.713 6.3-.411a6.367 6.367 0 0 1-.5 1.92l-2.862 6.7-.03.068-3.739-1.152z" class="prefix__cls-6" data-name="Path 9986" transform="translate(-67.339 -43.629)"/>
        <ellipse id="prefix__Ellipse_55" cx="1.378" cy="2.743" class="prefix__cls-4" data-name="Ellipse 55" rx="1.378" ry="2.743" transform="rotate(-71.58 27.225 19.622)"/>
        <path id="prefix__Path_9987" d="M101.1 16.674c-3.912 5.772-7.138 5.065-8.38 9.787a6.336 6.336 0 0 1-3.006-5.253 6.5 6.5 0 0 1 6.5-6.509 6.689 6.689 0 0 1 4.886 1.975z" class="prefix__cls-7" data-name="Path 9987" transform="translate(-63.607 -9.891)"/>
        <ellipse id="prefix__Ellipse_56" cx="1.884" cy="1.206" class="prefix__cls-5" data-name="Ellipse 56" rx="1.884" ry="1.206" transform="rotate(-104.06 20.838 -4.576)"/>
        <path id="prefix__Path_9988" d="M51.444 1.3c-6.952 5.314-11.515 15.816-12.367 25.159l-.168-.076A24.786 24.786 0 0 1 27.168 15.1C31.1 7.484 41.28-3.854 51.444 1.3z" data-name="Path 9988" transform="translate(-21.515)" style="opacity:.5;fill:#f5f0f0;fill-rule:evenodd"/>
        <ellipse id="prefix__Ellipse_57" cx=".807" cy=".461" class="prefix__cls-9" data-name="Ellipse 57" rx=".807" ry=".461" transform="rotate(-90.985 24.425 -12.268)"/>
        <path id="prefix__Path_9989" d="M122.949 41.58a21.175 21.175 0 0 1-2.714-.127 3.847 3.847 0 0 0 2.1 1.217 6.344 6.344 0 0 0 .614-1.09z" class="prefix__cls-10" data-name="Path 9989" transform="translate(-84.144 -27.896)"/>
        <g id="prefix__Group_6130" data-name="Group 6130" transform="translate(31.26 35.926)">
            <path id="prefix__Path_9990" d="M105.465 121.909l1.04-6.536.744-4.143.246-1.381 4.764.863-2.591 11.361z" class="prefix__cls-11" data-name="Path 9990" transform="translate(-105.465 -109.849)"/>
            <path id="prefix__Path_9991" d="M111.167 109.849l.066.012-.312 1.37z" class="prefix__cls-11" data-name="Path 9991" transform="translate(-109.137 -109.849)"/>
        </g>
        <g id="prefix__Group_6131" data-name="Group 6131" transform="translate(31.26 47.041)">
            <path id="prefix__Path_9992" d="M110.808 156.261l-5.343-11.481 4.091-.945 3.971 11.334z" class="prefix__cls-11" data-name="Path 9992" transform="translate(-105.465 -143.835)"/>
            <ellipse id="prefix__Ellipse_58" cx="1.511" cy="3.008" data-name="Ellipse 58" rx="1.511" ry="3.008" transform="rotate(-111.9 6.712 6.546)" style="fill:#1a1a1a"/>
        </g>
        <path id="prefix__Rectangle_2135" d="M0 0H3.498V1.849H0z" class="prefix__cls-4" data-name="Rectangle 2135" transform="rotate(-153.38 26.17 5.357)"/>
        <path id="prefix__Path_9993" d="M109.611 106.756l7.247 3.634-.64 1.513-7.338-3.679z" class="prefix__cls-13" data-name="Path 9993" transform="translate(-76.504 -71.841)"/>
        <path id="prefix__Path_9994" d="M116.954 81.111l7.757-18.7-2.623-.662-7.95 7.251-4.482 8.413z" class="prefix__cls-11" data-name="Path 9994" transform="translate(-77.025 -41.552)"/>
        <path id="prefix__Path_9995" d="M131.106 57.524c-3.2 5.469-4.436 8.258-7.96 8.977l1.206-2.425 5.27-5.025 1.346-2.032z" class="prefix__cls-6" data-name="Path 9995" transform="translate(-86.103 -38.371)"/>
        <path id="prefix__Path_9996" d="M129.132 54.3l-1.808 3.661-.45.487-4.354 4.519-2.708 2.228 2.295-3.84 5.273-4.8 1.115-1.785a11.823 11.823 0 0 0 .531-1.464z" class="prefix__cls-11" data-name="Path 9996" transform="translate(-83.859 -35.866)"/>
        <path id="prefix__Path_9997" d="M111.817 65.024A40.189 40.189 0 0 1 96.234 69.1l.072 1.5a43.188 43.188 0 0 0 15.621-1.606c3.826-1.4 3.861-5.968-.11-3.97z" class="prefix__cls-13" data-name="Path 9997" transform="translate(-67.993 -43.423)"/>
        <g id="prefix__Group_6132" data-name="Group 6132" transform="translate(38.649 4.338)">
            <ellipse id="prefix__Ellipse_59" cx="7.013" cy="7.245" class="prefix__cls-5" data-name="Ellipse 59" rx="7.013" ry="7.245" transform="rotate(-75.375 8.784 6.786)"/>
            <path id="prefix__Path_9998" d="M142.83 19.2c.53 5.156 8.742 9.228 6.4 12.6a6.948 6.948 0 0 0 4.562-4.821 7.132 7.132 0 0 0-5.24-8.615 7.337 7.337 0 0 0-5.722.836z" class="prefix__cls-7" data-name="Path 9998" transform="translate(-137.999 -16.53)"/>
            <ellipse id="prefix__Ellipse_60" cx="2.066" cy="1.322" class="prefix__cls-5" data-name="Ellipse 60" rx="2.066" ry="1.322" transform="rotate(-62.323 13.601 -.939)"/>
            <ellipse id="prefix__Ellipse_61" cx=".885" cy=".506" class="prefix__cls-9" data-name="Ellipse 61" rx=".885" ry=".506" transform="rotate(-75.375 6.653 2.11)"/>
            <path id="prefix__Path_9999" d="M133.115 42.884a23.258 23.258 0 0 0 2.925.566 4.217 4.217 0 0 1-2.556.753 6.91 6.91 0 0 1-.369-1.319z" class="prefix__cls-10" data-name="Path 9999" transform="translate(-131.461 -33.197)"/>
        </g>
        <path id="prefix__Path_10000" d="M93.883 73.791c-.546-.3-.854-.131-.92.305-.744-.55-1.169.544-1.406.968-.46.825-.462 1.091.66 1.716a1.792 1.792 0 1 0 1.666-2.99z" class="prefix__cls-2" data-name="Path 10000" transform="translate(-64.651 -49.555)"/>
        <path id="prefix__Path_10001" d="M148.893 62.7c.488.122.574.393.372.686.74.088.386.963.291 1.342-.185.738-.331.9-1.333.644s-1.665-1.054-1.48-1.792a1.681 1.681 0 0 1 2.15-.88z" class="prefix__cls-2" data-name="Path 10001" transform="translate(-101.962 -42.143)"/>
        <path id="prefix__Path_10002" d="M126.56 65.764a27.572 27.572 0 0 0 7.193-1.361l.257 1.237c-1.288.851-6.438 2.216-7.984 2.5z" class="prefix__cls-2" data-name="Path 10002" transform="translate(-88.042 -43.34)"/>
        <path id="prefix__Path_10003" d="M103.593 61.089a45.592 45.592 0 0 0 6.675 2.407l-.928 2.206a27.569 27.569 0 0 1-5.571-1.342c-3.242-.893-3.577-4.648-.176-3.271z" class="prefix__cls-2" data-name="Path 10003" transform="translate(-71.326 -40.908)"/>
        <path id="prefix__Path_10004" d="M146.753 19.727c-3.366-4.858-14.049-4.674-11.252-11.1 1.384 2.724 2.335 2.151 5.307 2.914a7.59 7.59 0 0 1 5.945 8.186z" class="prefix__cls-7" data-name="Path 10004" transform="translate(-94.106 -5.806)"/>
        <path id="prefix__Path_10005" d="M150.465 17.29c-2.511-5.351-13.076-6.947-9.248-12.817.911 2.917 1.944 2.51 4.748 3.757a7.59 7.59 0 0 1 4.5 9.06z" class="prefix__cls-7" data-name="Path 10005" transform="translate(-97.708 -3.01)"/>
        <path id="prefix__Path_10006" d="M138.36 17.513a13.126 13.126 0 0 1 3.505 4.076c1.209 2.146 7.89-2.746 5.416-4.478s-5.661-3.188-8.921.402z" class="prefix__cls-7" data-name="Path 10006" transform="translate(-96.342 -10.294)"/>
    </g>
</svg>
